<svg xmlns="http://www.w3.org/2000/svg" viewBox="0 0 225.62 132.96"><circle cx="62.3" cy="23.73" r="8.91" transform="translate(24.89 78.92) rotate(-76.72)" style="fill:#28a7e3"/><circle cx="186.89" cy="26.72" r="8.91" transform="translate(125.31 205.19) rotate(-79.1)" style="fill:#0088c5"/><circle cx="125.66" cy="8.91" r="8.91" transform="translate(101.47 132.54) rotate(-82.98)" style="fill:#15b715"/><path d="M217.55,48.34A39.2,39.2,0,0,0,198.7,34.89c-.57-.18-1.14-.35-1.7-.5a12.67,12.67,0,0,1-19.92.38c-9.46,2.88-18,9.2-26,15.95-1.36,1.15-19.78,16.4-20.45,16.63.87.85,1.6,1.56,1.73,1.72.28.35,4.44,4.71,6.66,6.9-.15-.19-.2-.31-.13-.37,8.19-7.21,16.41-14.68,25.31-21,10.29-7.3,21.58-13.26,34.16-7.25,11.74,5.61,17.24,19.42,14.25,31.8a25.52,25.52,0,0,1-13.43,16.91,28.32,28.32,0,0,1-5.57,2.12C210.16,96.2,231.83,86.75,217.55,48.34Zm-77.3,28.78.08.06-.26-.22Zm-18.36-2-.71.64c-1.84,1.65-3.71,3.3-5.57,4.91-2.87,2.48-5.74,4.88-8.53,7.14a230.17,230.17,0,0,1-32.14,22.11c-13,7.24-28.48,15.27-43.62,10C17.84,115.18,9.66,100,10.81,85.75a40.38,40.38,0,0,1,1.9-9.37c-5,13.73-9.56,41.18,24.3,56.08a58.17,58.17,0,0,0,23.68-2.79c26.24-8.4,49-28,69.12-46.09a.32.32,0,0,1,.42,0l1.14,1C127.5,81,123.09,76.39,121.89,75.13Zm-3.07-2.92c1,1,2,1.93,3.07,2.92C121.4,74.6,120.2,73.48,118.82,72.21Zm-6.42-5.84.09.08Z" style="fill:#0088c5"/><path d="M218.14,94.22c-10,13.2-27.23,18.71-43.23,15.42a59.16,59.16,0,0,1-9.65-2.89,94.08,94.08,0,0,1-21.68-12.57c-2.75-2.05-5.48-4.11-8.17-6.22-.41-.32-.81-.65-1.21-1l-.06,0c-.91-.77-1.81-1.56-2.77-2.37-3.87-3.52-8.28-8.17-9.48-9.43-.49-.53-1.69-1.65-3.07-2.92a3.45,3.45,0,0,0-.28-.26q-2.94-2.76-5.8-5.27c0-.05-.1-.09-.15-.14l-.1-.09-.09-.08h0A181.09,181.09,0,0,0,93.89,51.93l-.07,0a88.83,88.83,0,0,0-12.4-7A51.61,51.61,0,0,0,62.3,41.18c-18,0-36.74,11-45.88,26.91l0,0a.3.3,0,0,0-.06.11,1.94,1.94,0,0,0-.1.17,44.26,44.26,0,0,0-3.53,8c-5,13.73-9.56,41.18,24.3,56.08a42,42,0,0,1-8.14-1.66C-6.45,119.92-7.08,74.89,14.65,51.05A65.4,65.4,0,0,1,51.77,30.81a12.69,12.69,0,0,0,21,.09c21,3.78,38.66,18.18,54.4,33.14l3.44,3.31s0,0,0,0c.87.85,1.6,1.56,1.73,1.72.28.35,4.44,4.71,6.66,6.9l0,0a7.5,7.5,0,0,0,.93.89l.08.07.18.16.08.06,0,0c2.94,2.41,9.32,6.71,10.12,7.24,5.48,3.68,11,7.39,17,10.17a51.6,51.6,0,0,0,10.31,3.58,38.18,38.18,0,0,0,7.9,1,29.52,29.52,0,0,0,8-1c16.54-2,38.21-11.42,23.93-49.83l.51.68a38.55,38.55,0,0,1,7.1,16.8A37.49,37.49,0,0,1,218.14,94.22Z" style="fill:#28a7e3"/><path d="M170.53,36.59l.57-.24Z"/><path d="M83.1,92.93c-1.42-13.44-1.28-29.34,1.53-42.23,1.08.59,2.18,1.24,3.31,1.92C81.84,71.14,83,91.36,83.1,92.93Z" style="fill:#15b715"/><path d="M90.14,54c-.47,1.28-.91,2.55-1.25,3.69C85.33,69.09,83.77,81.1,83.11,93a.28.28,0,0,0,0-.06v0c-.1-1.57-1.26-21.79,4.84-40.31C88.66,53.06,89.4,53.52,90.14,54Z" style="fill:#009b00"/><path d="M173.76,89.59c-.61-2.59-1.25-5.16-1.94-7.72a185.41,185.41,0,0,0-7.57-22.55c.88-.67,1.71-1.31,2.53-1.91A146.14,146.14,0,0,1,173.76,89.59Z" style="fill:#009b00"/><path d="M125.66,21.6c-13.45.11-22.7,5.85-29,14l.41.22.71.4.8.46a34.33,34.33,0,0,1,3.16-3.57h0a34.22,34.22,0,0,1,52.22,5.13h0c0-.05-.07-.11-.11-.19l.12.19h0l0,0v0l0,0h0l0,0h0l0,.06h0v0h0v0l.07.09a30,30,0,0,1,2,3.2c.74-.55,1.49-1.09,2.25-1.63C151.19,29.36,140.76,21.47,125.66,21.6Z" style="fill:#009b00"/><path d="M162.19,37.67q-1.94,1.21-3.78,2.52c-7.22-10.83-17.65-18.72-32.75-18.59a12.68,12.68,0,0,0,9.62-4.41,41.53,41.53,0,0,1,24.61,16.9h0v0l0,0,0,.06a.18.18,0,0,1,.05.07l.07.09A37,37,0,0,1,162.19,37.67Z" style="fill:#15b715"/><path d="M125.66,21.6c-13.45.11-22.7,5.85-29,14-.18-.11-.37-.2-.55-.3l-.76-.41c-1.08-.57-2.18-1.12-3.29-1.65l.12-.16.11-.16a41.15,41.15,0,0,1,4.34-5h0A41.28,41.28,0,0,1,116,17.18,12.66,12.66,0,0,0,125.66,21.6Z" style="fill:#15b715"/><path d="M37,132.46h0" style="fill:none;stroke:#606060;stroke-miterlimit:10"/><path d="M173.76,89.59h0a146.14,146.14,0,0,0-7-32.18l1.31-1,.19-.14.5-.36c.12-.08.23-.17.36-.25A201.47,201.47,0,0,1,174.54,93C174.29,91.88,174,90.73,173.76,89.59Z" style="fill:#15b715"/></svg>