<svg xmlns="http://www.w3.org/2000/svg" viewBox="0 0 1249.24 329.14"><circle cx="154.5" cy="58.86" r="22.09" transform="translate(61.72 195.7) rotate(-76.72)" style="fill:#28a7e3"/><circle cx="463.46" cy="66.26" r="22.09" transform="translate(310.75 508.83) rotate(-79.1)" style="fill:#0088c5"/><circle cx="311.63" cy="22.09" r="22.09" transform="translate(251.63 328.68) rotate(-82.98)" style="fill:#15b715"/><path d="M539.49,119.88c-11.87-15.42-28.2-27.42-46.74-33.35-1.41-.46-2.82-.87-4.22-1.25a31.43,31.43,0,0,1-49.39.93c-23.46,7.15-44.63,22.83-64.46,39.56-3.37,2.85-49.05,40.67-50.72,41.24,2.18,2.1,4,3.88,4.31,4.27.68.86,11,11.67,16.5,17.1-.36-.45-.49-.76-.32-.91,20.31-17.87,40.7-36.4,62.78-52.09,25.51-18.12,53.5-32.9,84.71-18,29.1,13.9,42.75,48.15,35.33,78.86A63.36,63.36,0,0,1,494,238.18a69.42,69.42,0,0,1-13.81,5.26C521.16,238.56,574.9,215.11,539.49,119.88ZM347.81,191.24l.19.15-.65-.54Zm-45.53-4.94-1.77,1.59c-4.55,4.09-9.2,8.19-13.8,12.18-7.12,6.15-14.24,12.1-21.17,17.7-25.09,20.25-51.5,39.12-79.7,54.84-32.16,17.94-70.63,37.87-108.16,24.73C44.24,285.63,24,248,26.81,212.65a99.86,99.86,0,0,1,4.71-23.25C19.23,223.46,7.81,291.53,91.78,328.47c19.62,2.09,39.85-.87,58.73-6.91C215.57,300.72,272,252.07,321.92,207.25a.78.78,0,0,1,1,.07c1,.79,1.9,1.58,2.81,2.36C316.19,201,305.26,189.44,302.28,186.3Zm-7.61-7.24q3.78,3.56,7.61,7.24C301.05,185,298.09,182.22,294.67,179.06Zm-15.93-14.48.21.19Z" style="fill:#0088c5"/><path d="M541,233.64c-24.74,32.75-67.54,46.4-107.2,38.25a145.77,145.77,0,0,1-23.93-7.18c-19.37-7.59-37.15-18.77-53.77-31.16-6.81-5.08-13.58-10.2-20.27-15.43-1-.8-2-1.61-3-2.44l-.15-.12c-2.25-1.89-4.48-3.86-6.87-5.88-9.58-8.71-20.51-20.24-23.49-23.38-1.23-1.3-4.19-4.08-7.61-7.24l-.7-.65q-7.29-6.82-14.38-13.07c-.12-.12-.25-.22-.37-.33l-.27-.24-.21-.19h0a445.6,445.6,0,0,0-45.9-35.8l-.17-.11a218,218,0,0,0-30.74-17.46,126.59,126.59,0,0,0-25.18-7.15,128.76,128.76,0,0,0-22.24-1.93c-44.71,0-91.1,27.25-113.78,66.74l0,.09a1.74,1.74,0,0,0-.15.26l-.24.43a109.2,109.2,0,0,0-8.76,19.76C19.23,223.46,7.81,291.53,91.78,328.47a105.88,105.88,0,0,1-20.19-4.1c-87.57-27-89.15-138.65-35.26-197.79A162.19,162.19,0,0,1,128.38,76.4a31.46,31.46,0,0,0,52.11.22c52.16,9.37,95.86,45.08,134.89,82.19q4.31,4.11,8.54,8.21s0,0,0,0c2.18,2.1,4,3.88,4.31,4.27.68.86,11,11.67,16.5,17.1l.07.08a19,19,0,0,0,2.32,2.22l.19.17.46.39.19.15.05,0c7.3,6,23.11,16.64,25.09,18,13.59,9.13,27.23,18.32,42.13,25.22a128,128,0,0,0,25.57,8.87,94.37,94.37,0,0,0,19.59,2.38,73.27,73.27,0,0,0,19.72-2.43c41-4.88,94.75-28.33,59.34-123.56l1.26,1.68a95.47,95.47,0,0,1,17.62,41.66A93,93,0,0,1,541,233.64Z" style="fill:#28a7e3"/><path d="M422.89,90.75l1.4-.61Z"/><path d="M206.08,230.45c-3.51-33.32-3.18-72.75,3.8-104.73,2.67,1.47,5.4,3.07,8.2,4.77C203,176.4,205.83,226.55,206.08,230.45Z" style="fill:#15b715"/><path d="M223.53,133.9c-1.17,3.18-2.24,6.32-3.09,9.16-8.83,28.27-12.71,58-14.34,87.63,0,0,0-.05,0-.14a.38.38,0,0,0,0-.1c-.25-3.9-3.13-54,12-100Q220.77,132.13,223.53,133.9Z" style="fill:#009b00"/><path d="M430.89,222.16q-2.26-9.63-4.8-19.15a464.08,464.08,0,0,0-18.76-55.92c2.16-1.65,4.24-3.23,6.26-4.72C423.83,171.27,428.64,201.25,430.89,222.16Z" style="fill:#009b00"/><path d="M311.63,53.56c-33.36.28-56.3,14.51-72,34.79l1,.56c.59.32,1.18.65,1.76,1s1.33.75,2,1.13a85,85,0,0,1,7.84-8.85h0A84.84,84.84,0,0,1,381.7,94.9l0,0a3.92,3.92,0,0,1-.27-.47l.29.46h0l.06.08,0,0,.07.1s0,0,0,0l.05.07h0l.1.14,0,0v0l0,0,0,0h0l0,0,.16.22a73.19,73.19,0,0,1,4.94,7.94c1.83-1.36,3.68-2.71,5.57-4C374.94,72.8,349.06,53.25,311.63,53.56Z" style="fill:#009b00"/><path d="M402.2,93.41q-4.79,3-9.37,6.26c-17.89-26.87-43.77-46.42-81.2-46.11a31.41,31.41,0,0,0,23.84-10.94,102.94,102.94,0,0,1,61,41.91s0,0,0,0l0,0,.06.09.1.14.13.17.15.23A84.19,84.19,0,0,1,402.2,93.41Z" style="fill:#15b715"/><path d="M311.63,53.56c-33.36.28-56.3,14.51-72,34.79-.45-.26-.9-.5-1.36-.75l-1.88-1q-4-2.13-8.16-4.1l.29-.4.28-.39A102,102,0,0,1,239.54,69.3l0,0a102.22,102.22,0,0,1,48.2-26.68A31.46,31.46,0,0,0,311.63,53.56Z" style="fill:#15b715"/><path d="M91.8,328.48h0" style="fill:none;stroke:#606060;stroke-miterlimit:10"/><path d="M40.67,169l-.15.26" style="fill:none;stroke:#606060;stroke-miterlimit:10"/><path d="M430.89,222.17h0c-2.25-20.91-7.06-50.89-17.3-79.79,1.1-.82,2.18-1.62,3.24-2.39l.47-.34,1.24-.89.9-.63c7.71,30.36,11.47,61.3,13.4,92.57Q431.9,226.42,430.89,222.17Z" style="fill:#15b715"/><path d="M206.08,230.45a.38.38,0,0,1,0,.1c0,.09,0,.14,0,.14" style="fill:none;stroke:#232b3b;stroke-miterlimit:10"/><path d="M865.13,83.18a14.93,14.93,0,0,1,0-21.29,16.77,16.77,0,0,1,22.38,0,14.93,14.93,0,0,1,0,21.29,16.77,16.77,0,0,1-22.38,0Z" style="fill:#15b715"/><path d="M655.19,99.47V200.3H629.71V99.47Z" style="fill:#232b3b"/><path d="M765.3,109.39q11.1,11.37,11.11,31.76V200.3H750.93V144.6q0-12-6-18.47t-16.38-6.46q-10.56,0-16.65,6.46t-6.1,18.47v55.7H680.31V99.47h25.48V112a35.3,35.3,0,0,1,13-10.29A40.36,40.36,0,0,1,736.18,98Q754.21,98,765.3,109.39Z" style="fill:#232b3b"/><path d="M846.84,120.4H829.18v79.9H803.34V120.4H791.87V99.47h11.47v-5.1q0-18.56,10.56-27.3t31.85-8.19V80.36q-9.29-.18-12.92,3.09t-3.65,11.83v4.19h17.66Z" style="fill:#232b3b"/><path d="M888.88,99.47V200.3H863.4V99.47Z" style="fill:#232b3b"/><path d="M999,109.39q11.1,11.37,11.1,31.76V200.3H984.61V144.6q0-12-6-18.47t-16.38-6.46q-10.54,0-16.65,6.46t-6.1,18.47v55.7H914V99.47h25.48V112a35.25,35.25,0,0,1,13-10.29A40.36,40.36,0,0,1,969.87,98Q987.89,98,999,109.39Z" style="fill:#232b3b"/><path d="M1059.78,99.47V200.3H1034.3V99.47Z" style="fill:#232b3b"/><path d="M1114.56,120.4v48.77q0,5.1,2.45,7.38t8.29,2.27h11.83V200.3h-16q-32.22,0-32.21-31.31V120.4h-12V99.47h12V74.53h25.66V99.47h22.57V120.4Z" style="fill:#232b3b"/><path d="M1248.51,157.53H1174.8q.9,10.92,7.64,17.1a23.55,23.55,0,0,0,16.56,6.19q14.2,0,20.2-12.19h27.49a45.92,45.92,0,0,1-16.75,23.93q-12.37,9.38-30.39,9.37a52.58,52.58,0,0,1-26.12-6.46,45.46,45.46,0,0,1-18-18.29q-6.45-11.82-6.46-27.3,0-15.65,6.37-27.48a44.44,44.44,0,0,1,17.84-18.2q11.46-6.37,26.39-6.37A53,53,0,0,1,1225.3,104,43.59,43.59,0,0,1,1243,121.58a53.24,53.24,0,0,1,6.28,26.12A60.81,60.81,0,0,1,1248.51,157.53Zm-25.66-17.11q-.19-9.82-7.1-15.74a25.15,25.15,0,0,0-16.93-5.92,23.11,23.11,0,0,0-15.92,5.73q-6.47,5.73-7.92,15.93Z" style="fill:#232b3b"/><path d="M631.44,83.18a14.93,14.93,0,0,1,0-21.29,16.78,16.78,0,0,1,22.39,0,14.93,14.93,0,0,1,0,21.29,16.78,16.78,0,0,1-22.39,0Z" style="fill:#28a7e3"/><path d="M1036,83.18a15,15,0,0,1,0-21.29,16.78,16.78,0,0,1,22.39,0,14.93,14.93,0,0,1,0,21.29,16.78,16.78,0,0,1-22.39,0Z" style="fill:#0088c5"/><path d="M632.84,232.35a22.79,22.79,0,0,1,8.54-8.67,23.62,23.62,0,0,1,12-3.13,24.36,24.36,0,0,1,13.53,3.74,21.45,21.45,0,0,1,8.44,10.61h-7.42a14.87,14.87,0,0,0-5.68-6.59,16.35,16.35,0,0,0-8.87-2.32,17.19,17.19,0,0,0-8.91,2.32,16.16,16.16,0,0,0-6.2,6.56,21.16,21.16,0,0,0-2.24,10,20.94,20.94,0,0,0,2.24,9.89,16.12,16.12,0,0,0,6.2,6.57,17.28,17.28,0,0,0,8.91,2.31,16.6,16.6,0,0,0,8.87-2.28,14.68,14.68,0,0,0,5.68-6.56h7.42a21.29,21.29,0,0,1-8.44,10.51,24.5,24.5,0,0,1-13.53,3.7,23.79,23.79,0,0,1-12-3.09,22.5,22.5,0,0,1-8.54-8.61,26.39,26.39,0,0,1,0-24.93Z" style="fill:#232b3b"/><path d="M709.44,266a22.75,22.75,0,0,1-8.61-8.64,26.24,26.24,0,0,1,0-25,22.75,22.75,0,0,1,8.61-8.64,25.14,25.14,0,0,1,24.15,0,22.64,22.64,0,0,1,8.57,8.61,26.59,26.59,0,0,1,0,25,22.57,22.57,0,0,1-8.57,8.61,25.14,25.14,0,0,1-24.15,0Zm21-4.59a16.34,16.34,0,0,0,6.26-6.6,22.85,22.85,0,0,0,0-19.9,16.4,16.4,0,0,0-6.22-6.56,18.54,18.54,0,0,0-18,0,16.34,16.34,0,0,0-6.22,6.56,22.85,22.85,0,0,0,0,19.9,16.32,16.32,0,0,0,6.25,6.6,18.47,18.47,0,0,0,17.89,0Z" style="fill:#232b3b"/><path d="M804.88,268.58h-6.19l-24.9-37.76v37.76H767.6V221.1h6.19l24.9,37.68V221.1h6.19Z" style="fill:#232b3b"/><path d="M864.47,268.58h-6.19l-24.9-37.76v37.76h-6.19V221.1h6.19l24.9,37.68V221.1h6.19Z" style="fill:#232b3b"/><path d="M893,226.2v15.85h17.28v5.1H893v16.32h19.32v5.11H886.78V221.1h25.51v5.1Z" style="fill:#232b3b"/><path d="M937.73,232.35a22.79,22.79,0,0,1,8.54-8.67,23.56,23.56,0,0,1,12-3.13,24.4,24.4,0,0,1,13.54,3.74,21.5,21.5,0,0,1,8.44,10.61h-7.42a14.87,14.87,0,0,0-5.68-6.59,16.36,16.36,0,0,0-8.88-2.32,17.21,17.21,0,0,0-8.91,2.32,16.2,16.2,0,0,0-6.19,6.56,21.16,21.16,0,0,0-2.24,10,20.94,20.94,0,0,0,2.24,9.89,16.17,16.17,0,0,0,6.19,6.57,17.3,17.3,0,0,0,8.91,2.31,16.62,16.62,0,0,0,8.88-2.28,14.68,14.68,0,0,0,5.68-6.56h7.42a21.34,21.34,0,0,1-8.44,10.51,24.54,24.54,0,0,1-13.54,3.7,23.73,23.73,0,0,1-12-3.09,22.5,22.5,0,0,1-8.54-8.61,26.39,26.39,0,0,1,0-24.93Z" style="fill:#232b3b"/><path d="M1034.67,221.16v5h-12.93v42.38h-6.19V226.2h-13v-5Z" style="fill:#232b3b"/><path d="M1063.17,221.16v47.42H1057V221.16Z" style="fill:#232b3b"/><path d="M1097.25,266a22.66,22.66,0,0,1-8.6-8.64,26.17,26.17,0,0,1,0-25,22.66,22.66,0,0,1,8.6-8.64,25.14,25.14,0,0,1,24.15,0,22.57,22.57,0,0,1,8.57,8.61,26.59,26.59,0,0,1,0,25,22.5,22.5,0,0,1-8.57,8.61,25.14,25.14,0,0,1-24.15,0Zm21-4.59a16.38,16.38,0,0,0,6.25-6.6,22.85,22.85,0,0,0,0-19.9,16.4,16.4,0,0,0-6.22-6.56,18.54,18.54,0,0,0-18,0,16.4,16.4,0,0,0-6.22,6.56,22.85,22.85,0,0,0,0,19.9,16.34,16.34,0,0,0,6.26,6.6,18.47,18.47,0,0,0,17.89,0Z" style="fill:#232b3b"/><path d="M1192.69,268.58h-6.19l-24.9-37.76v37.76h-6.19V221.1h6.19l24.9,37.68V221.1h6.19Z" style="fill:#232b3b"/><path d="M1231.16,268.76c-9.39,0-16-5.23-16.16-12.94h6.51c.4,3.89,3.15,7.78,9.65,7.78,5.9,0,9.39-3.35,9.39-7.78,0-12.6-25.28-4.56-25.28-21.92,0-7.71,6.24-12.94,15.49-12.94,8.91,0,14.75,4.89,15.48,12h-6.7c-.4-3.15-3.35-6.71-9-6.77-5-.14-9,2.48-9,7.51,0,12.06,25.2,4.55,25.2,21.85C1246.71,262.19,1241.28,268.76,1231.16,268.76Z" style="fill:#232b3b"/></svg>