<svg xmlns="http://www.w3.org/2000/svg" width="50.251" height="63.923" viewBox="0 0 50.251 63.923"><g transform="translate(-47.03)"><path d="M122.7,74.784a2.956,2.956,0,0,1-3.488,0v.752l1.744,3.414,1.744-3.414Z" transform="translate(-61.689 -63.914)" fill="#c69c6d"/><path d="M133.712,91.127V109.34h4.718v-13.8a.272.272,0,0,1,.02-.119l2.1-6.028a4.683,4.683,0,0,0-1.988-1.018L137.475,88l-.106,2.435a.363.363,0,0,1-.514.315l-2.392-1.09Z" transform="translate(-74.083 -75.206)" fill="#badfe8"/><path d="M212.6,204.563a3.134,3.134,0,0,1-1.1-.2.363.363,0,0,1-.142.2,1.512,1.512,0,0,0,1.238.5h.01a1.512,1.512,0,0,0,1.238-.5.363.363,0,0,1-.142-.2A3.133,3.133,0,0,1,212.6,204.563Z" transform="translate(-140.444 -174.659)" fill="#d8b4a4"/><path d="M141.161,85.279l1.872.853.091-2.112L142,83.633Z" transform="translate(-80.45 -71.477)" fill="#badfe8"/><path d="M173.3,117.672a3.259,3.259,0,0,1,1.338-.651l1.882-.653v-.015a4.9,4.9,0,0,1-1.973-4.083,6.1,6.1,0,0,1,.488-2.758l-1.2-6.134a3.668,3.668,0,0,0-.633-1.561l-1.936,5.557Z" transform="translate(-106.173 -87.019)" fill="#badfe8"/><path d="M110.714,7.189a.363.363,0,0,1,.363-.363h0a.363.363,0,0,1,.363.363c0,.285.617.7,1.585.7s1.585-.414,1.585-.7a.363.363,0,0,1,.363-.363h0a.363.363,0,0,1,.363.363c0,.9.263,1.433.78,1.592V6.924a1.654,1.654,0,0,0-.491-1.12,4.611,4.611,0,0,0-5.2,0,1.654,1.654,0,0,0-.492,1.109V8.781C110.452,8.622,110.714,8.089,110.714,7.189Z" transform="translate(-53.761 -4.273)" fill="#754c24"/><path d="M109.712,85.279l-.841-1.646-1.123.387.091,2.112Z" transform="translate(-51.893 -71.477)" fill="#badfe8"/><path d="M52.04,238a.988.988,0,0,0,1.96.254c0-.01,0-.02.005-.03l.228-1.058H52.15Z" transform="translate(-4.275 -202.692)" fill="#c69c6d"/><path d="M113.027,33.623a2.5,2.5,0,0,0,1.861-.89,5.218,5.218,0,0,0,1.232-3.519V28.165a1.706,1.706,0,0,1-1.388-1.358,3.486,3.486,0,0,1-3.408,0,1.706,1.706,0,0,1-1.388,1.358v1.049a5.217,5.217,0,0,0,1.232,3.519A2.5,2.5,0,0,0,113.027,33.623Zm1.308-4.288a.375.375,0,0,1,.513,0,.364.364,0,1,1-.513,0Zm-2.249,2.019a.364.364,0,0,1,.353.277,1.514,1.514,0,0,0,1.177,0,.363.363,0,0,1,.716.087c0,.447-.536.759-1.3.759s-1.3-.312-1.3-.759A.363.363,0,0,1,112.086,31.354Zm-.88-2.021a.377.377,0,0,1,.513,0,.366.366,0,0,1,.106.257.363.363,0,0,1-.727,0A.368.368,0,0,1,111.206,29.334Z" transform="translate(-53.762 -22.911)" fill="#c69c6d"/><path d="M274.345,31.844l2.371-.569V29.446a4.929,4.929,0,0,1-1.454-3.646v-1h0a.363.363,0,0,1,.295-.357c.026-.005,2.641-.528,2.641-2.207V20.041a4.906,4.906,0,0,0-3.02,1.15,3.51,3.51,0,0,0-1,2.642.365.365,0,0,1-.041.168c-.032.061-3.091,6-.859,8.235A4.583,4.583,0,0,1,274.345,31.844Z" transform="translate(-192.67 -17.128)" fill="#e0bc4b"/><path d="M296.7,45.267v.714a4.156,4.156,0,0,0,1.28,3.174,1.923,1.923,0,0,0,2.587,0,4.156,4.156,0,0,0,1.28-3.174v-.714a4.536,4.536,0,0,1-2.573-1.612A4.538,4.538,0,0,1,296.7,45.267Zm1.055,1.228a.365.365,0,0,1-.363-.363.371.371,0,0,1,.106-.257.377.377,0,0,1,.515,0,.364.364,0,0,1-.257.621Zm2.779-.621a.377.377,0,0,1,.515,0,.363.363,0,1,1-.515,0ZM299.9,47.8a.363.363,0,0,1,.718.081c0,.456-.552.775-1.343.775s-1.343-.319-1.343-.775a.363.363,0,0,1,.718-.081,1.576,1.576,0,0,0,1.251,0Z" transform="translate(-213.383 -37.31)" fill="#e5cbbd"/><path d="M296.457,88.4a2.563,2.563,0,0,1-1.119-.261v1.622a.363.363,0,0,1-.279.353l-1.655.4c.185,1,1.363,1.659,3.052,1.659s2.867-.656,3.052-1.659l-1.655-.4a.363.363,0,0,1-.279-.353V88.144A2.563,2.563,0,0,1,296.457,88.4Z" transform="translate(-210.566 -75.333)" fill="#e5cbbd"/><path d="M319.546,24.443a.363.363,0,0,1,.3.357h0v1a4.929,4.929,0,0,1-1.454,3.646v1.829l2.373.569a4.578,4.578,0,0,1,1.062.392C324.054,30,321,24.064,320.964,24a.365.365,0,0,1-.041-.168,3.511,3.511,0,0,0-1-2.642,4.907,4.907,0,0,0-3.02-1.15v2.193C316.9,23.921,319.519,24.438,319.546,24.443Z" transform="translate(-230.65 -17.13)" fill="#e0bc4b"/><path d="M249.646,154.108l2.775-9.113a2.886,2.886,0,0,1-.283-.592l-2.167-.984-2.053,9.267A3.315,3.315,0,0,1,249.646,154.108Z" transform="translate(-171.691 -122.574)" fill="#e5cbbd"/><path d="M200.721,147.151a.363.363,0,0,1,.5-.115.359.359,0,0,1,.114.115h0l.749,1.193h3.1c-.216-2.143-1.248-3.269-3.018-3.269a3.188,3.188,0,0,0-3.018,3.269h.826Z" transform="translate(-130.007 -123.989)" fill="#b79870"/><path d="M201.908,170.529c1.688,0,3.061-1.761,3.061-3.926,0-.058,0-.114,0-.17h-3.339a.363.363,0,0,1-.308-.17l-.548-.873-.548.873a.363.363,0,0,1-.308.17h-1.068c0,.056,0,.112,0,.17C198.846,168.768,200.22,170.529,201.908,170.529Zm1.166-3.515a.375.375,0,0,1,.513,0,.364.364,0,1,1-.513,0Zm-2.021,1.679a.363.363,0,0,1,.343.242,1.25,1.25,0,0,0,.509.088h0a1.253,1.253,0,0,0,.512-.09.364.364,0,0,1,.342-.243h0a.363.363,0,0,1,.363.362c0,.144-.062.411-.481.574a2.1,2.1,0,0,1-.736.123H201.9c-.726,0-1.213-.278-1.214-.692a.363.363,0,0,1,.362-.364Zm-.823-1.674a.377.377,0,0,1,.515,0,.363.363,0,0,1,0,.513.361.361,0,0,1-.515,0,.358.358,0,0,1-.106-.256A.362.362,0,0,1,200.229,167.019Z" transform="translate(-129.75 -141.351)" fill="#d8b4a4"/><path d="M267.5,245.87a.362.362,0,0,1-.067.087l.041.185C267.48,246.051,267.489,245.961,267.5,245.87Z" transform="translate(-188.367 -210.134)" fill="#c69c6d"/><path d="M52.44,224.811h2.3l.681-1.25H52.349Z" transform="translate(-4.546 -191.067)" fill="#badfe8"/><path d="M249.31,220.774a3.13,3.13,0,0,0-.29-.667l-1.164,3.41.343,1.069,1.831-1.083Z" transform="translate(-171.637 -188.115)" fill="#f4a04d"/><path d="M254.6,249.219l-1.414.837,2.41,7.96q0,.013.007.026a.458.458,0,0,0,.894-.2Z" transform="translate(-176.193 -212.996)" fill="#d8b4a4"/><path d="M293.176,422.282H295.9v-2.129h-1.586A4.629,4.629,0,0,1,293.176,422.282Z" transform="translate(-210.37 -359.086)" fill="#998675"/><path d="M195.857,208.045l-.039-.011-1.547-.537a2.109,2.109,0,0,1-1.925.977h-.01a2.109,2.109,0,0,1-1.925-.977l-1.547.537-.039.011a2.545,2.545,0,0,0-1.173.61l1.353,3.964a.165.165,0,0,1,.014.06c0,.01.167,8.714.167,8.714H195.5l.162-8.664a.266.266,0,0,1,.019-.111l1.353-3.964A2.541,2.541,0,0,0,195.857,208.045Z" transform="translate(-120.184 -177.338)" fill="#f4a04d"/><path d="M193.278,308.1l-.8,7.56h3.154l.472-5.393a.363.363,0,0,1,.724,0l.475,5.393h3.151l-.8-7.56h-6.367Z" transform="translate(-124.305 -263.321)" fill="#5576a5"/><path d="M227.862,365.113l0,8.435h1.587l.437-8.435Z" transform="translate(-154.547 -312.046)" fill="#d8b4a4"/><path d="M316.9,328.12h1.585a98.984,98.984,0,0,0,1.662-14.8H316.9v14.8Z" transform="translate(-230.648 -267.78)" fill="#e5cbbd"/><path d="M352.36,143.419l-2.167.984a2.881,2.881,0,0,1-.284.593l3.795,12.458c0,.009,0,.017.007.026a.861.861,0,0,0,1.68-.379Z" transform="translate(-258.858 -122.574)" fill="#e5cbbd"/><path d="M55.718,103.38,52.7,118.787h3.333l2.258-11.411-1.936-5.557A3.668,3.668,0,0,0,55.718,103.38Z" transform="translate(-4.843 -87.02)" fill="#badfe8"/><path d="M316.9,420.152v2.129h2.722a4.63,4.63,0,0,1-1.136-2.129Z" transform="translate(-230.649 -359.085)" fill="#998675"/><path d="M275.489,109.1a2.6,2.6,0,0,1,.727,2.136l1.83-.831-.338-1.527a4.386,4.386,0,0,0-3.062-3.17l-.287-.069c-.262,1.342-1.709,2.215-3.764,2.215s-3.5-.873-3.764-2.215l-.285.068a4.445,4.445,0,0,0-3.063,3.172l-.338,1.525,1.83.831a2.6,2.6,0,0,1,.727-2.136.363.363,0,1,1,.488.538,2.194,2.194,0,0,0-.354,2.233c.195.565.54.931.9.957a.363.363,0,0,1,.337.341l.124,2.106a.363.363,0,0,1-.063.226c-1.36,1.992-2.327,6.554-2.8,13.193,0,0,1.4,6.361,1.4,6.4h11.377c-.026-2.363-.294-15.547-3.06-19.6a.364.364,0,0,1-.063-.226l.124-2.106a.363.363,0,0,1,.337-.341c.36-.026.705-.392.9-.957a2.194,2.194,0,0,0-.354-2.233.363.363,0,1,1,.488-.538Z" transform="translate(-184.704 -90.284)" fill="#a881c9"/><path d="M227.855,428.149v.967h2.911a1.321,1.321,0,0,0-.3-.712.882.882,0,0,0-.677-.254Z" transform="translate(-154.543 -365.919)" fill="#999"/><path d="M291.224,328.12h1.585v-14.8h-3.247A99.017,99.017,0,0,0,291.224,328.12Z" transform="translate(-207.28 -267.78)" fill="#e5cbbd"/><path d="M106.41,251.111a1.2,1.2,0,0,1-.15-.023,1.185,1.185,0,0,1-.9-1.415l1.047-4.759v-5.067H96.246v25.817h3.5l1.217-23.44a.362.362,0,0,1,.724,0h0l1.217,23.44h3.5V251.111Z" transform="translate(-42.063 -204.986)" fill="#898785"/><path d="M177.7,220.883l-.691,2.619,1.831,1.083.343-1.069-1.164-3.41A2.971,2.971,0,0,0,177.7,220.883Z" transform="translate(-111.086 -188.115)" fill="#f4a04d"/><path d="M164.84,253.037h0l-1.057,4.8a.458.458,0,1,0,.894.2c0-.009,0-.017.007-.026l2.41-7.96-1.414-.837Z" transform="translate(-99.774 -212.997)" fill="#d8b4a4"/><path d="M145.264,422.471h-3.052v1.792h4.713a2.308,2.308,0,0,0-.521-1.359A1.483,1.483,0,0,0,145.264,422.471Z" transform="translate(-81.348 -361.067)" fill="#754c24"/><path d="M88.305,422.906a2.322,2.322,0,0,0-.518,1.357H92.5v-1.792H89.447A1.482,1.482,0,0,0,88.305,422.906Z" transform="translate(-34.833 -361.067)" fill="#754c24"/><path d="M192.919,428.149a.882.882,0,0,0-.677.254,1.321,1.321,0,0,0-.3.713h2.911v-.967h-1.931Z" transform="translate(-123.848 -365.919)" fill="#999"/><path d="M83.779,95.534v13.8H88.5V91.125l-.752-1.471-2.392,1.09a.363.363,0,0,1-.514-.315l-.106-2.435-1.087.374a4.685,4.685,0,0,0-1.988,1.018l2.1,6.028A.27.27,0,0,1,83.779,95.534Z" transform="translate(-29.596 -75.204)" fill="#badfe8"/><path d="M200.058,373.548l0-8.435h-2.021l.437,8.435Z" transform="translate(-129.056 -312.046)" fill="#d8b4a4"/><path d="M305.527,70.22a.363.363,0,0,0-.363.363c0,.456.552.775,1.343.775s1.343-.319,1.343-.775a.363.363,0,0,0-.718-.081,1.577,1.577,0,0,1-1.251,0A.363.363,0,0,0,305.527,70.22Z" transform="translate(-220.616 -60.014)" fill="#1c1b1a"/><path d="M302.187,58.591a.368.368,0,0,0-.106-.257.377.377,0,0,0-.515,0,.37.37,0,0,0-.106.257.363.363,0,0,0,.727,0Z" transform="translate(-217.45 -49.769)" fill="#1c1b1a"/><path d="M322.714,58.955a.364.364,0,0,0,.257-.621.377.377,0,0,0-.515,0,.363.363,0,0,0,.257.621Z" transform="translate(-235.305 -49.769)" fill="#1c1b1a"/><path d="M93.713,18.434A5.527,5.527,0,0,0,91.8,15.5c2.283-2.546-.413-8.118-.8-8.886a4.175,4.175,0,0,0-1.223-3.08,6.234,6.234,0,0,0-7.767,0,4.175,4.175,0,0,0-1.223,3.08c-.389.768-3.085,6.34-.8,8.887a5.524,5.524,0,0,0-1.913,2.934L75.533,29.891l-1.561-.542v-.015a4.9,4.9,0,0,0,1.974-4.083c0-4.562-2.7-4.892-3.788-4.892a3.51,3.51,0,0,0-2.74,1.212l-1.046-5.334a4.6,4.6,0,0,0-3.7-3.773l-2.94-1.013V10.214A5.976,5.976,0,0,0,63.084,6.3V4.924h0V2.665A2.385,2.385,0,0,0,62.4,1.038,4.2,4.2,0,0,0,59.265,0a4.2,4.2,0,0,0-3.136,1.038,2.385,2.385,0,0,0-.683,1.613V6.3a5.976,5.976,0,0,0,1.348,3.911V11.45l-2.94,1.013a4.6,4.6,0,0,0-3.7,3.773s-3.11,15.917-3.109,15.92l.142,1.94-.147,1.113a1.715,1.715,0,0,0,1.479,1.922,1.751,1.751,0,0,0,.225.015,1.716,1.716,0,0,0,1.7-1.478l.309-1.433L51.8,32.3c0-.006,1.652-8.266,1.652-8.266V60.947a2.029,2.029,0,0,0-.513.394,3.324,3.324,0,0,0-.727,2.24.363.363,0,0,0,.363.342h5.45a.363.363,0,0,0,.363-.363V61.052l.872-16.795.872,16.795V63.56a.363.363,0,0,0,.363.363h5.45a.363.363,0,0,0,.363-.342,3.324,3.324,0,0,0-.727-2.24,2.025,2.025,0,0,0-.513-.394V45.956l.017-.009a1.177,1.177,0,0,0,.518-.728l2.375-7.843a.725.725,0,0,0,.167-.052l.132,7.078L67.4,52.666a.363.363,0,0,0,.361.4h.484l.439,8.471a1.5,1.5,0,0,0-.827.45,2.359,2.359,0,0,0-.517,1.593.363.363,0,0,0,.363.342h3.658a.363.363,0,0,0,.363-.364V61.867h0l0-8.805a.363.363,0,0,0,.293-.325l.14-1.6.141,1.6a.363.363,0,0,0,.289.324l0,8.806h0V63.56a.363.363,0,0,0,.363.364h3.658a.363.363,0,0,0,.363-.342,2.358,2.358,0,0,0-.517-1.593,1.5,1.5,0,0,0-.827-.45l.439-8.471h.484a.363.363,0,0,0,.361-.4L76.031,44.4l.132-7.078a.722.722,0,0,0,.167.052L78.7,45.219a1.186,1.186,0,0,0,1.151.913,1.2,1.2,0,0,0,.261-.029,1.177,1.177,0,0,0,.742-.522c.009-.013.015-.027.023-.041h.671a100.08,100.08,0,0,0,1.718,15.171,3.827,3.827,0,0,1-1.682,2.54.363.363,0,0,0,.19.673H90a.363.363,0,0,0,.19-.673,3.826,3.826,0,0,1-1.682-2.54,100.088,100.088,0,0,0,1.718-15.17h2.549a.363.363,0,0,0,.363-.363c0-.636-.036-15.529-3.119-20.264l.1-1.706a1.464,1.464,0,0,0,.354-.174l3.67,12.049a1.588,1.588,0,0,0,2.888.484,1.575,1.575,0,0,0,.207-1.2ZM86.255,2.913a4.907,4.907,0,0,1,3.02,1.15,3.51,3.51,0,0,1,1,2.642.365.365,0,0,0,.041.168c.032.061,3.091,6,.859,8.235a4.585,4.585,0,0,0-1.062-.392l-2.373-.569V12.318a4.929,4.929,0,0,0,1.454-3.646v-1h0a.363.363,0,0,0-.3-.357c-.026-.005-2.641-.522-2.641-2.207V2.913Zm1.034,11.873,1.655.4c-.185,1-1.363,1.659-3.052,1.659s-2.868-.656-3.052-1.659l1.655-.4a.363.363,0,0,0,.279-.353V12.811a2.53,2.53,0,0,0,2.237,0v1.622A.363.363,0,0,0,87.289,14.786Zm-1.4-8.441a4.538,4.538,0,0,0,2.573,1.612v.714a4.156,4.156,0,0,1-1.28,3.174,1.923,1.923,0,0,1-2.587,0,4.156,4.156,0,0,1-1.28-3.174V7.958A4.538,4.538,0,0,0,85.891,6.345Zm-4.422.528a.365.365,0,0,0,.041-.168,3.511,3.511,0,0,1,1-2.642,4.905,4.905,0,0,1,3.02-1.15V5.106c0,1.679-2.615,2.2-2.641,2.207a.363.363,0,0,0-.295.357h0v1a4.929,4.929,0,0,0,1.454,3.646v1.829l-2.371.569a4.583,4.583,0,0,0-1.064.392C78.378,12.869,81.437,6.934,81.469,6.873ZM78.28,20.845l2.167.984a2.885,2.885,0,0,0,.283.592l-2.775,9.113a3.314,3.314,0,0,0-1.727-1.422Zm.13,11.761-.01-.04,2.9-9.535a1.47,1.47,0,0,0,.355.175l.1,1.706c-1.41,2.167-2.179,6.5-2.6,10.538Zm.721,3.13q-.014.136-.027.272l-.041-.185A.373.373,0,0,0,79.131,35.736Zm-6.974-14.65c1.77,0,2.8,1.126,3.018,3.269h-3.1l-.749-1.193h0a.357.357,0,0,0-.114-.115.363.363,0,0,0-.5.115l-.749,1.193h-.826A3.188,3.188,0,0,1,72.157,21.086Zm-3.059,4h1.068a.363.363,0,0,0,.308-.17l.548-.873.548.873a.363.363,0,0,0,.308.17h3.339c0,.056,0,.112,0,.17,0,2.165-1.373,3.926-3.061,3.926S69.1,27.416,69.1,25.251C69.1,25.194,69.1,25.138,69.1,25.082ZM73.4,29.9a1.512,1.512,0,0,1-1.238.5h-.01a1.513,1.513,0,0,1-1.238-.5.363.363,0,0,0,.142-.2,3.116,3.116,0,0,0,2.2,0A.363.363,0,0,0,73.4,29.9ZM67.655,16.36l1.2,6.134a6.1,6.1,0,0,0-.488,2.758,4.9,4.9,0,0,0,1.973,4.083v.015L68.461,30a3.258,3.258,0,0,0-1.338.651l-2.037-10.3L67.021,14.8A3.666,3.666,0,0,1,67.655,16.36Zm-2.4,19.463-.177.8V24.038l1.438,7.267a3.828,3.828,0,0,0-.608,1.3l-.755,2.861A.362.362,0,0,0,65.25,35.823Zm-2.327-20.25a.363.363,0,0,0,.363-.348l.106-2.435,1.087.374a4.687,4.687,0,0,1,1.988,1.018l-2.1,6.028a.272.272,0,0,0-.02.119v13.8H59.629V15.921l.752-1.471,2.392,1.09A.36.36,0,0,0,62.923,15.572Zm-3.658-.537-1.744-3.414V10.87a2.956,2.956,0,0,0,3.488,0v.752Zm3.41-2.493-.091,2.112L60.711,13.8l.841-1.646ZM56.664,1.53a3.549,3.549,0,0,1,2.6-.8,3.549,3.549,0,0,1,2.6.8,1.654,1.654,0,0,1,.491,1.12V4.508c-.518-.159-.78-.692-.78-1.592a.363.363,0,0,0-.363-.363h0a.363.363,0,0,0-.363.363c0,.285-.617.7-1.585.7s-1.585-.414-1.585-.7a.363.363,0,0,0-.363-.363h0a.363.363,0,0,0-.363.363c0,.9-.263,1.433-.781,1.592V2.64A1.653,1.653,0,0,1,56.664,1.53ZM56.173,6.3V5.255A1.706,1.706,0,0,0,57.561,3.9a3.486,3.486,0,0,0,3.408,0,1.706,1.706,0,0,0,1.388,1.358V6.3a5.217,5.217,0,0,1-1.232,3.519,2.39,2.39,0,0,1-3.721,0A5.217,5.217,0,0,1,56.173,6.3Zm.8,5.852.841,1.646-1.872.853-.091-2.112ZM49.73,35.529c0,.01,0,.02-.005.03a.988.988,0,0,1-1.96-.254l.11-.833h2.084Zm.463-1.785h-2.3l-.091-1.25h3.071Zm.993-1.977H47.853L50.875,16.36a3.669,3.669,0,0,1,.633-1.561l1.936,5.557Zm.876-17.585a4.683,4.683,0,0,1,1.988-1.018l1.087-.374.106,2.435a.363.363,0,0,0,.514.315l2.392-1.09.752,1.471V34.134H54.183v-13.8a.268.268,0,0,0-.02-.119Zm5.6,49.015H52.953a2.323,2.323,0,0,1,.518-1.357,1.481,1.481,0,0,1,1.142-.436h3.052V63.2Zm1.962-25.959h0a.362.362,0,0,0-.724,0l-1.217,23.44h-3.5V34.861H64.347v5.067L63.3,44.687a1.185,1.185,0,0,0,.9,1.415,1.21,1.21,0,0,0,.15.023V60.678h-3.5ZM65.577,63.2H60.864V61.4h3.052a1.483,1.483,0,0,1,1.14.433A2.308,2.308,0,0,1,65.577,63.2ZM64.91,45.02c0,.009,0,.017-.007.026a.458.458,0,1,1-.894-.2l1.057-4.8h0l.84-3.817,1.414.837Zm2.842-8.549-1.831-1.083.691-2.619a2.968,2.968,0,0,1,.319-.777L68.1,35.4ZM68.092,63.2a1.322,1.322,0,0,1,.3-.713.883.883,0,0,1,.677-.254H71V63.2H68.092Zm.886-10.129H71L71,61.5H69.415Zm6.943,9.416a1.319,1.319,0,0,1,.3.712H73.312V62.23h1.931A.883.883,0,0,1,75.921,62.484ZM73.312,61.5l0-8.435h2.021L74.9,61.5Zm2.832-9.162H72.994l-.475-5.393a.363.363,0,0,0-.724,0l-.472,5.393H68.17l.8-7.56h6.367ZM75.492,35.28a.266.266,0,0,0-.019.111l-.162,8.664H69s-.167-8.7-.167-8.714a.166.166,0,0,0-.014-.06l-1.353-3.964a2.546,2.546,0,0,1,1.173-.61l.039-.011,1.547-.537a2.109,2.109,0,0,0,1.925.977h.01a2.109,2.109,0,0,0,1.925-.977l1.547.537.039.011a2.545,2.545,0,0,1,1.173.61Zm.727.121,1.164-3.41a3.127,3.127,0,0,1,.29.667l.72,2.729-1.831,1.083Zm4.026,9.79a.458.458,0,0,1-.834-.145c0-.009,0-.018-.007-.026l-2.41-7.96,1.414-.837,1.9,8.623A.456.456,0,0,1,80.245,45.191Zm5.283,18H82.806a4.63,4.63,0,0,0,1.136-2.129h1.586V63.2Zm0-2.856H83.943a98.982,98.982,0,0,1-1.662-14.8h3.247v14.8ZM88.977,63.2H86.255V61.067h1.586A4.63,4.63,0,0,0,88.977,63.2ZM87.84,60.34H86.255v-14.8H89.5A99.054,99.054,0,0,1,87.84,60.34ZM90.3,19.353a2.194,2.194,0,0,1,.354,2.233c-.195.565-.54.931-.9.957a.363.363,0,0,0-.337.341l-.124,2.106a.363.363,0,0,0,.063.226c2.765,4.049,3.034,17.232,3.06,19.6H81.036c0-.042-1.4-6.4-1.4-6.4.469-6.64,1.436-11.2,2.8-13.193a.364.364,0,0,0,.063-.226l-.124-2.106a.363.363,0,0,0-.337-.341c-.36-.026-.705-.392-.9-.957a2.194,2.194,0,0,1,.354-2.233A.363.363,0,1,0,81,18.815a2.6,2.6,0,0,0-.727,2.136l-1.83-.831.338-1.525a4.444,4.444,0,0,1,3.063-3.172l.285-.068c.263,1.342,1.709,2.215,3.764,2.215s3.5-.873,3.764-2.215l.287.069A4.386,4.386,0,0,1,93,18.593l.338,1.527-1.83.831a2.6,2.6,0,0,0-.727-2.136.363.363,0,0,0-.488.538Zm6.124,15.823a.861.861,0,0,1-1.568-.27c0-.009,0-.017-.007-.026L91.052,22.422a2.882,2.882,0,0,0,.284-.593l2.167-.984,3.031,13.682A.856.856,0,0,1,96.421,35.177Z" fill="#1c1b1a"/><path d="M123.537,59.215c.768,0,1.3-.312,1.3-.759a.363.363,0,0,0-.716-.087,1.514,1.514,0,0,1-1.177,0,.363.363,0,0,0-.716.087C122.232,58.9,122.769,59.215,123.537,59.215Z" transform="translate(-64.272 -49.649)" fill="#1c1b1a"/><path d="M118.3,44.218a.362.362,0,0,0,.363-.363.367.367,0,0,0-.106-.257.377.377,0,0,0-.513,0,.368.368,0,0,0-.108.257.365.365,0,0,0,.363.363Z" transform="translate(-60.604 -37.174)" fill="#1c1b1a"/><path d="M139.835,44.223a.362.362,0,0,0,.256-.619.375.375,0,0,0-.513,0,.363.363,0,0,0,.257.619Z" transform="translate(-79.005 -37.18)" fill="#1c1b1a"/><path d="M211.523,188.459c0,.415.489.692,1.215.692h.006a2.1,2.1,0,0,0,.736-.123c.42-.164.482-.43.481-.574a.363.363,0,0,0-.363-.362h0a.364.364,0,0,0-.342.243,1.254,1.254,0,0,1-.513.09h0a1.25,1.25,0,0,1-.509-.088.364.364,0,0,0-.343-.242h0A.364.364,0,0,0,211.523,188.459Z" transform="translate(-140.585 -160.753)" fill="#1c1b1a"/><path d="M207.992,176.624a.365.365,0,0,0,.363-.363.37.37,0,0,0-.106-.257.377.377,0,0,0-.515,0,.364.364,0,0,0,.257.621Z" transform="translate(-137.257 -150.336)" fill="#1c1b1a"/><path d="M227.553,176.583a.363.363,0,0,0,.257-.619.375.375,0,0,0-.513,0,.363.363,0,0,0,.256.619Z" transform="translate(-153.975 -150.302)" fill="#1c1b1a"/></g></svg>