<svg xmlns="http://www.w3.org/2000/svg" xmlns:xlink="http://www.w3.org/1999/xlink" width="284.164" height="286.638" viewBox="0 0 284.164 286.638"><defs><clipPath id="a"><path d="M1805.4,2600.609c-3.163,8.432-2.756,13.6-2.249,15.907.014.064.037.126.057.188a151.263,151.263,0,0,0,24.429-.458,1.6,1.6,0,0,0-.057-.484c-2.8-9.567-16.679-15.526-16.679-15.526Z" transform="translate(-1802.805 -2600.237)" fill="none"/></clipPath><linearGradient id="b" x1="-7.265" y1="1.151" x2="-7.261" y2="1.151" gradientUnits="objectBoundingBox"><stop offset="0" stop-color="#4f52ff"/><stop offset="1" stop-color="#4042e2"/></linearGradient><clipPath id="c"><path d="M1806.74,2756.6a2.246,2.246,0,0,0,1.746,1.521c6.455,1.171,16.715.229,21.023-.257a1.822,1.822,0,0,0,1.661-1.721,151.253,151.253,0,0,1-24.429.458" transform="translate(-1806.74 -2756.145)" fill="none"/></clipPath><linearGradient id="d" x1="-20.165" y1="0.584" x2="-20.154" y2="0.584" gradientUnits="objectBoundingBox"><stop offset="0" stop-color="#09005d"/><stop offset="1" stop-color="#1a0f91"/></linearGradient><clipPath id="e"><path d="M1806.544,2535.021l2.33,9.676a1.741,1.741,0,0,0,1.567,1.3,17.992,17.992,0,0,0,3.609-.05,2.028,2.028,0,0,0,1.826-2.337l-1.62-8.592Z" transform="translate(-1806.544 -2535.021)" fill="none"/></clipPath><linearGradient id="f" x1="-15.209" y1="2.433" x2="-15.2" y2="2.433" gradientUnits="objectBoundingBox"><stop offset="0" stop-color="#febbba"/><stop offset="1" stop-color="#ff928e"/></linearGradient><clipPath id="g"><path d="M2171.066,2748.238a1.117,1.117,0,0,0,1.145,1.052l33.358-.186a1.316,1.316,0,0,0,1.225-1.913c-4.374.312-15.513,1.009-24.905.783-6.075-.147-9.218-.764-10.842-1.337,0,.521,0,1.051.019,1.6" transform="translate(-2171.046 -2746.637)" fill="none"/></clipPath><linearGradient id="h" x1="-19.184" y1="0.592" x2="-19.175" y2="0.592" xlink:href="#d"/><clipPath id="i"><path d="M2171.059,2628.262c1.625.573,4.767,1.19,10.842,1.337,9.392.227,20.531-.471,24.905-.782a1.287,1.287,0,0,0-.132-.217c-2.946-3.552-10.449-10.623-25.276-13.69l-7.113-.194s-3.167,4.749-3.227,13.546" transform="translate(-2171.059 -2614.716)" fill="none"/></clipPath><linearGradient id="j" x1="-6.236" y1="1.201" x2="-6.234" y2="1.201" xlink:href="#b"/><clipPath id="k"><path d="M2189.64,2511.148c.079.457,1.054,7.409,1.431,10.1a1.439,1.439,0,0,0,1.305,1.206,18.868,18.868,0,0,0,4.886-.065,1.882,1.882,0,0,0,1.594-1.822V2509.66Z" transform="translate(-2189.64 -2509.66)" fill="none"/></clipPath><linearGradient id="l" x1="-15.888" y1="2.606" x2="-15.88" y2="2.606" xlink:href="#f"/><clipPath id="m"><path d="M1701.593,1288.663s-7.611,10.829-7.634,13.319c-.419,44.165,9.443,105.473,11.156,115.773a2.21,2.21,0,0,0,2.075,1.706,33.865,33.865,0,0,0,6.385.015,1.587,1.587,0,0,0,1.535-1.562c-1.654-31.68,5.841-94.131,5.841-94.131,7.865,11.131,19.349,81.08,21.755,93.25a2.839,2.839,0,0,0,2.808,2.123,42.637,42.637,0,0,0,7.952-.794,2.873,2.873,0,0,0,2.52-2.67c.31-70.782-16.845-127.029-16.845-127.029Z" transform="translate(-1693.946 -1288.663)" fill="none"/></clipPath><linearGradient id="n" x1="-1.243" y1="1.112" x2="-1.242" y2="1.112" xlink:href="#d"/><clipPath id="o"><path d="M1524.606,439.955c-2.816,5.546-7.179,12.937-6.821,13.617,4.974,9.45,23.8,47.177,20.136,70.112a2.239,2.239,0,0,0,2.1,2.462c7.477.961,29.748,3.342,41.318-.658a1.539,1.539,0,0,0,1.106-1.422,147.512,147.512,0,0,1,9.241-48.631,24.135,24.135,0,0,0,.815-2.725c6.378,11.6,2.751,19.265-3.368,26.985,2.533,4.707,3.288,10.594,6.141,12.668,42.781-20.52,16.371-62.125,5.72-72.759a17.513,17.513,0,0,0-10.489-4.858c-6.524-.709-18.471-2.9-31.441-2.9-11.742,0-24.321,1.8-34.461,8.108" transform="translate(-1517.764 -431.847)" fill="none"/></clipPath><linearGradient id="p" x1="-1.161" y1="2.269" x2="-1.16" y2="2.269" xlink:href="#b"/><clipPath id="q"><path d="M1834.71,224.917l-2.419,16.951a2.956,2.956,0,0,0,2.436,3.3c3.307.617,9.017,1.145,14.29-.99a3.368,3.368,0,0,0,2.051-4.02l-3.872-21.22Z" transform="translate(-1832.262 -218.943)" fill="none"/></clipPath><linearGradient id="r" x1="-5.688" y1="7.065" x2="-5.685" y2="7.065" xlink:href="#f"/><clipPath id="s"><path d="M1741.238,86.679c-.132.372.319,25.259.319,25.259l15.485-2.342,3.393-24.091a50.077,50.077,0,0,0-11.987-1.939c-3.377,0-6.366.735-7.21,3.113" transform="translate(-1741.214 -83.566)" fill="none"/></clipPath><linearGradient id="t" x1="-6.116" y1="8.373" x2="-6.112" y2="8.373" xlink:href="#f"/><clipPath id="u"><path d="M1691.614,0c-.293,0-.6.017-.927.051-6.87.7-9,7.605-8.054,11.771s8.4,3.011,12.4,1.159c2.933-1.361,6.031.3,7.468,1.279a1.745,1.745,0,0,1,.768,1.57l-.713,12.5a1.979,1.979,0,0,1-.115.564c-.371,1.026-1.824,4.238-5.191,3.094-2.87-.975-5.527-1.833-7.643-1.57a2.46,2.46,0,0,0-2.19,2.351,68.136,68.136,0,0,0,1.085,11.1,1.93,1.93,0,0,0,2.412,1.37,72.066,72.066,0,0,0,13.636-4.178,2.448,2.448,0,0,0,1.44-1.8c.515-3.351,2-12.741,2.855-15.383.794-2.455,4.237-3.789,5.85-4.289a2.622,2.622,0,0,0,1.462-1.126c.967-1.592,2.316-4.916-1.865-6.639a1.819,1.819,0,0,1-.809-2.66c1.033-1.852,1.715-4.571-1.606-6.3-3.362-1.751-6.479-.208-8.367,1.223a2.5,2.5,0,0,1-2.774.273,1.51,1.51,0,0,0-1.439-.073,1.988,1.988,0,0,1-2.733-.989,4.709,4.709,0,0,0-4.89-3.3Z" transform="translate(-1682.419 0.004)" fill="none"/></clipPath><linearGradient id="v" x1="-3.053" y1="6.056" x2="-3.051" y2="6.056" xlink:href="#d"/><clipPath id="w"><path d="M1936.212,184.273c-3.163,1.611-1.858,8.975-1.858,8.975s4.618,2.172,7.049-4.264c1.417-3.753-.288-5.387-2.539-5.387a5.952,5.952,0,0,0-2.652.677" transform="translate(-1934.088 -183.596)" fill="none"/></clipPath><linearGradient id="x" x1="-13.685" y1="17.871" x2="-13.677" y2="17.871" xlink:href="#f"/><clipPath id="y"><rect width="284.164" height="286.638" fill="none"/></clipPath><clipPath id="z"><path d="M1346.581,1177.377l7.3.787s3.015-11.445,7.724-24.814a37.657,37.657,0,0,1-15.552-1.523,223.5,223.5,0,0,0,.526,25.549" transform="translate(-1345.9 -1151.828)" fill="none"/></clipPath><linearGradient id="aa" x1="-4.749" y1="8.911" x2="-4.745" y2="8.911" xlink:href="#f"/><clipPath id="ab"><path d="M1347.413,576.927a37.657,37.657,0,0,0,15.552,1.523c5.326-15.119,12.819-32.7,20.569-38.966,0,0-1.825-22.048-11.865-28.347,0,0-22.186,13.765-24.256,65.79" transform="translate(-1347.413 -511.137)" fill="none"/></clipPath><linearGradient id="ac" x1="-1.695" y1="5.173" x2="-1.693" y2="5.173" xlink:href="#b"/><clipPath id="ad"><path d="M1311.134,1356.227c-8.378,5.512-3.487,17.323,1.077,18.11s10.04-3.937,9.127-10.236-5.476-7.874-5.476-7.874,1.623-2.45.222-2.45c-.7,0-2.157.613-4.95,2.45" transform="translate(-1306.579 -1353.777)" fill="none"/></clipPath><linearGradient id="ae" x1="-5.534" y1="6.851" x2="-5.529" y2="6.851" xlink:href="#f"/><clipPath id="af"><path d="M211.764,168.438c-5.041,2.088-14.847,5.173-16.141,14.184-.668,4.652-4.658,8.379-10.03,9.089-13.379,1.769-34,7.762-37.294,27.8-2.518,15.3,6.52,21.1,16.006,23.1,6.967,1.475,11.6,7.321,10.187,13.389-1.351,5.82.664,12.548,12.351,17.869,26.19,11.923,52.346-28.246,52.346-28.246l5.36-70.137L227.314,159.68a75.646,75.646,0,0,1-15.55,8.758" transform="translate(-147.872 -159.68)" fill="none"/></clipPath><linearGradient id="ag" x1="0.109" y1="1.858" x2="0.11" y2="1.858" xlink:href="#d"/><clipPath id="ai"><path d="M1085.894,760.865c10.952,11.811,25.555,52.756,25.555,52.756l4.564-3.937c-4.564-32.284-19.167-68.5-19.167-68.5Z" transform="translate(-1085.894 -741.18)" fill="none"/></clipPath><linearGradient id="aj" x1="-1.185" y1="5.17" x2="-1.183" y2="5.17" xlink:href="#f"/><clipPath id="ak"><path d="M89.6,2656.452c-2.634,2.395-4.461,6.463-5.46,9.174a2.52,2.52,0,0,0,2.418,3.221,60.247,60.247,0,0,0,10.893-.147,3.163,3.163,0,0,0,2.949-2.538l.99-7.022a2.556,2.556,0,0,0-2.761-2.689Z" transform="translate(-84.005 -2656.452)" fill="none"/></clipPath><linearGradient id="al" x1="-0.393" y1="1.01" x2="-0.388" y2="1.01" xlink:href="#d"/><clipPath id="am"><path d="M779.038,1887.928l-4.665,7.56a13.587,13.587,0,0,0-2.022,8.478l4.836,49.958L773.5,1958.3l.449,2.374,22.552,11.481-8.874-12.432a12.531,12.531,0,0,1-2.4-7.944c.908-17.838,6.011-62.433,6.011-62.433l-1.524-7.734Z" transform="translate(-772.29 -1881.615)" fill="none"/></clipPath><linearGradient id="an" x1="-2.348" y1="1.022" x2="-2.345" y2="1.022" xlink:href="#f"/><clipPath id="ao"><path d="M766.843,2608.187l2.125,11.4h1.677s-.383-9.177,2.609-9c2.223.128,6.871,5.035,9.115,7.55a4.609,4.609,0,0,0,3.439,1.455H793c2.307,0,2.625-2.9.354-3.255a11.9,11.9,0,0,0-2.925-.067s-11.384-6.913-15.092-8.843-4.393-6.294-4.393-6.294a6.537,6.537,0,0,0-4.106,7.056" transform="translate(-766.744 -2601.131)" fill="none"/></clipPath><linearGradient id="ap" x1="-2.485" y1="0.979" x2="-2.482" y2="0.979" xlink:href="#d"/><clipPath id="aq"><path d="M153.462,1889.3c-12.467,8.227-15.7,17.158-18.566,25.391s-8.083,31.914-10.509,37.139c-2.033,4.377-7.521,14.026-9.25,17.045a2.431,2.431,0,0,0,.121,2.669c.678.947,2.063,1.925,4.891,1.925,5.48,0,7.467-1.323,7.567-2.7A95.434,95.434,0,0,1,134.2,1949.4c4.752-11.17,34.648-60.1,34.648-60.1a9.4,9.4,0,0,0-7.022-3.214c-4.558,0-8.361,3.214-8.361,3.214" transform="translate(-114.796 -1886.087)" fill="none"/></clipPath><linearGradient id="ar" x1="-0.13" y1="1.037" x2="-0.129" y2="1.037" xlink:href="#f"/><clipPath id="at"><path d="M500.217,1150.649c-3.138,8.157-5.886,48.154-18.12,66.892,0,0,29.539,6.735,48.745,3.378,0,0,12.189-55.441,14.132-64.067s-.872-17.909-.872-17.909a34.054,34.054,0,0,1-26.787-2.251s-13.96,5.8-17.1,13.957" transform="translate(-482.097 -1136.692)" fill="none"/></clipPath><linearGradient id="au" x1="-0.309" y1="1.661" x2="-0.308" y2="1.661" xlink:href="#b"/><clipPath id="av"><path d="M856.594,360.539l-6.27,24.3c-.6,2.14,1.661,1.79,4.169,1.382,4.107-.668,9.4-2.044,11.17-4.8a2.361,2.361,0,0,0,.321-.916l2.694-16.848a2.977,2.977,0,0,0-2.054-3.181l-5.2-1.988a3.974,3.974,0,0,0-1.421-.261,3.454,3.454,0,0,0-3.412,2.317" transform="translate(-850.226 -358.222)" fill="none"/></clipPath><linearGradient id="aw" x1="-3.712" y1="8.075" x2="-3.707" y2="8.075" xlink:href="#f"/><clipPath id="ax"><path d="M901.835,213.916a23.341,23.341,0,0,0,13.28,14.54c4.36,1.966,10.006.376,11-9.909s-3.769-16.371-3.769-16.371a7.6,7.6,0,0,0-6.081-2.64c-7.4,0-16.67,7.686-14.434,14.38" transform="translate(-901.496 -199.536)" fill="none"/></clipPath><linearGradient id="ay" x1="-2.711" y1="9.038" x2="-2.708" y2="9.038" xlink:href="#f"/><clipPath id="az"><path d="M841.822,116.188c-8.6,6.227-12.84,11.316-10.458,18.25s7.479,3.821,7.479,3.821-.256-5.286,2.194-6.538,3.421,2.652,3.421,2.652l.962.129s2.975-14.124,14.9-7.051l1.656,3.332s8.629-3.579,3.553-10.888a16.417,16.417,0,0,0-13.449-7.2,17.393,17.393,0,0,0-10.253,3.493" transform="translate(-830.708 -112.695)" fill="none"/></clipPath><linearGradient id="ba" x1="-1.565" y1="6.034" x2="-1.563" y2="6.034" xlink:href="#d"/><clipPath id="bb"><path d="M903.86,281.03c-4.8.346-1.071,6.93.53,9.3l2.691-2.4s1.5-6.913-2.9-6.914c-.105,0-.213,0-.325.012" transform="translate(-901.495 -281.018)" fill="none"/></clipPath><linearGradient id="bc" x1="-9.103" y1="25.616" x2="-9.093" y2="25.616" xlink:href="#f"/><clipPath id="bd"><path d="M1262.883,1037.279c-6.561-.022-4.462,6.913-4.462,6.913-4.634,1.3-3.5,7.307-3.5,7.307l17.743,17.941c14.073,12.1,20.316-6.67,20.316-6.67,7.724-3.83,2.416-8.58,2.416-8.58,8.009-15.335-12.241-16.562-12.241-16.562-3.066-4.844-6.381-6.446-9.425-6.446-5.938,0-10.842,6.1-10.842,6.1" transform="translate(-1254.795 -1031.183)" fill="none"/></clipPath><linearGradient id="be" x1="-1.954" y1="2.982" x2="-1.953" y2="2.982" xlink:href="#d"/><clipPath id="bf"><path d="M1625.917,1084.836c-3.382,1.14,0,8.411,0,8.412-2.071,4.012-12.872,24.635-18.727,29.723-6.494,5.644,3.952,7.114,3.952,7.114s11.672-5.461,18.216-35.182a.573.573,0,0,0,.153-.077c.893-.681,7.851-7.154,3.649-11.469a4.419,4.419,0,0,0-3.126-1.6c-2.5,0-4.117,3.077-4.117,3.077" transform="translate(-1605.063 -1081.759)" fill="none"/></clipPath><linearGradient id="bg" x1="-2.571" y1="3.441" x2="-2.569" y2="3.441" gradientUnits="objectBoundingBox"><stop offset="0" stop-color="#a22b25"/><stop offset="1" stop-color="#c0423c"/></linearGradient><clipPath id="bh"><path d="M954.386,1083.356c-3.876,3.981,1.741,9.793,3.337,11.206,3.309,16.734,15.361,35.518,15.361,35.518s13.811-.529,7.316-6.172c-5.267-4.577-15.08-23.907-18.6-31.048.637-1.508,2.747-7.04-.17-8.023,0,0-1.615-3.077-4.117-3.077a4.417,4.417,0,0,0-3.126,1.6" transform="translate(-953.048 -1081.759)" fill="none"/></clipPath><linearGradient id="bi" x1="-1.453" y1="3.456" x2="-1.452" y2="3.456" xlink:href="#bg"/><clipPath id="bj"><path d="M1284.26,2718.617c-8.086.832-9.064,4.093-9.1,5.483a.819.819,0,0,0,.59.808,22.881,22.881,0,0,0,6.044.652h.031a69.069,69.069,0,0,0,8.771-.654.826.826,0,0,0,.713-.8,26.338,26.338,0,0,0-.877-6.08Z" transform="translate(-1275.156 -2718.027)" fill="none"/></clipPath><linearGradient id="bk" x1="-17.775" y1="0.732" x2="-17.761" y2="0.732" xlink:href="#d"/><clipPath id="bl"><path d="M1295.928,2250.9s2.081,1.933,5.291-.27c-1.854-17.181-2.982-34.608-1.984-52.418l-11.637-1.061c-1,.65,6.512,53.366,8.331,53.75" transform="translate(-1287.507 -2197.154)" fill="none"/></clipPath><linearGradient id="bm" x1="-6.224" y1="1.083" x2="-6.219" y2="1.083" xlink:href="#bg"/><clipPath id="bn"><path d="M1459.349,2718.617c-8.086.832-9.064,4.093-9.1,5.483a.819.819,0,0,0,.59.808,22.882,22.882,0,0,0,6.044.652h.031a69.066,69.066,0,0,0,8.771-.654.826.826,0,0,0,.713-.8,26.338,26.338,0,0,0-.877-6.08Z" transform="translate(-1450.244 -2718.027)" fill="none"/></clipPath><linearGradient id="bo" x1="-20.138" y1="0.732" x2="-20.124" y2="0.732" xlink:href="#d"/><clipPath id="bp"><path d="M1471.016,2250.9s2.08,1.933,5.291-.27c-1.854-17.181-2.982-34.608-1.984-52.418l-11.638-1.061c-1,.65,6.512,53.366,8.331,53.75" transform="translate(-1462.595 -2197.154)" fill="none"/></clipPath><linearGradient id="bq" x1="-7.097" y1="1.083" x2="-7.092" y2="1.083" xlink:href="#bg"/><clipPath id="br"><path d="M1249.6,1888.736s.718,19.9,3.112,32.136a1.222,1.222,0,0,0,.922.959c1.571.365,5.526.885,11.793-.87a1.225,1.225,0,0,0,.888-1.262l-.647-7.928a.966.966,0,0,1,.9-1.03l.656-.1a.966.966,0,0,1,1.032.955l1.238,8.041a1.222,1.222,0,0,0,.83,1.147,21.357,21.357,0,0,0,12.944-.137,1.221,1.221,0,0,0,.865-1.156c.064-9.76-1.689-21.432-4.218-33.923,0,0-24.482,1.12-30.313,3.167" transform="translate(-1249.6 -1885.569)" fill="none"/></clipPath><linearGradient id="bs" x1="-3.429" y1="2.388" x2="-3.427" y2="2.388" xlink:href="#d"/><clipPath id="bt"><path d="M1455.428,1896.932s3.094,8.6,10.563,9.2l-1.651-9.812h-.22a53.987,53.987,0,0,0-8.691.612" transform="translate(-1455.428 -1896.32)" fill="none"/></clipPath><linearGradient id="bu" x1="-10.6" y1="6.639" x2="-10.592" y2="6.639" xlink:href="#d"/><clipPath id="bv"><path d="M1101.32,1431.463a33.981,33.981,0,0,0-6.1,5.081,1.836,1.836,0,0,0-.254,2.226c3.264,5.273,6.744,8.959,10.434,11.1a7.217,7.217,0,0,1,1.87,5.04l-.682,25.9a1.46,1.46,0,0,0,1.186,1.477c4.912.932,23.552,4.177,35.139,2.132v-27.936a5.7,5.7,0,0,1,2.964-4.974,30.608,30.608,0,0,0,9.682-8.98l-3.162-10.275s-11.065,7.114-24.5,6.323c-11.206-.659-18.014-3.517-21.8-6.74a4.127,4.127,0,0,0-2.669-1,3.874,3.874,0,0,0-2.1.618" transform="translate(-1094.698 -1430.845)" fill="none"/></clipPath><linearGradient id="bw" x1="-1.238" y1="1.855" x2="-1.237" y2="1.855" gradientUnits="objectBoundingBox"><stop offset="0" stop-color="#ff928e"/><stop offset="1" stop-color="#fe7062"/></linearGradient><clipPath id="bx"><path d="M1355.048,1388.646l-1.076,11.648c6.055,3.6,13.094-.517,13.094-.517l-1.214-13.336Z" transform="translate(-1353.972 -1386.441)" fill="none"/></clipPath><linearGradient id="by" x1="-7.99" y1="7.199" x2="-7.984" y2="7.199" xlink:href="#bg"/><clipPath id="bz"><path d="M1231.457,1145.483s-21.265,15.9-9.255,27.384c11.335,10.836,21.955-.973,21.955-.973s8.122-4.027,7.818-9.468c-.288-5.166-14.655-17.045-19.782-17.047a2.4,2.4,0,0,0-.736.1" transform="translate(-1218.526 -1145.379)" fill="none"/></clipPath><linearGradient id="ca" x1="-2.746" y1="4.368" x2="-2.743" y2="4.368" xlink:href="#bg"/><clipPath id="cb"><path d="M1319.038,1113.647c-.6.428-2.476,1.8-2.613,2.451-.306,1.448,1.943,3.1,3.026,3.546a5.51,5.51,0,0,0,2.154.253,4.286,4.286,0,0,1,2.574.49c1.454,1.007,1.678,2.622,3.731,3.152a4.476,4.476,0,0,0,3.236,6.962c.5.052,1.1.07,1.359.5a1.554,1.554,0,0,1-.035,1.213,6.439,6.439,0,0,0,.416,4.735,4.453,4.453,0,0,0,1.988,1.982,5.053,5.053,0,0,0,6.064-1.944,7.4,7.4,0,0,0,.6-7.049c-1.321-3.162-7.515-9.217-14.433-15.465a6.952,6.952,0,0,0-4.613-1.987,5.922,5.922,0,0,0-3.453,1.164" transform="translate(-1316.397 -1112.483)" fill="none"/></clipPath><linearGradient id="cc" x1="-3.741" y1="4.974" x2="-3.738" y2="4.974" xlink:href="#d"/><clipPath id="cd"><path d="M1449.141,1359.324l-4.763,5.751c1.5,1.023,6.38.526,8.275-2.851,1.478-2.634-1.485-2.924-2.862-2.923-.389,0-.651.023-.651.023" transform="translate(-1444.378 -1359.301)" fill="none"/></clipPath><linearGradient id="ce" x1="-15.099" y1="21.335" x2="-15.088" y2="21.335" xlink:href="#bg"/><clipPath id="cf"><path d="M568.482,707.636c-3.951,2.878-13.023,11.479-13.97,30.276-1.215,24.108,41.308,17.819,41.308,17.819l2.43-5.241s-30.373-1.048-30.373-11.53c0-7.382,8.82-15.962,12.739-19.411a4.807,4.807,0,0,0,1.609-5.019,13.278,13.278,0,0,0-6.629-7.6,6.859,6.859,0,0,0-2.9-.627,7.218,7.218,0,0,0-4.215,1.338" transform="translate(-554.486 -706.298)" fill="none"/></clipPath><linearGradient id="cg" x1="-0.633" y1="3.105" x2="-0.632" y2="3.105" xlink:href="#f"/><clipPath id="ch"><path d="M930.016,1101.961a61.252,61.252,0,0,0-8,3.149l-.5,5.237a14.2,14.2,0,0,0,17.235,1.529c2.656-1.615,2.2-6.77-.355-6.766s-9.59,0-8.375-1.052,4.86-2.1,4.86-2.1a3.169,3.169,0,0,0-1.98-.466,10.517,10.517,0,0,0-2.88.466" transform="translate(-921.511 -1101.495)" fill="none"/></clipPath><linearGradient id="ci" x1="-3.685" y1="7.443" x2="-3.681" y2="7.443" xlink:href="#f"/><clipPath id="cj"><path d="M1933.533,1096.492l2.312,12.2,3.078-2.085c1.6-.9,2.945-.737,4.785-.676a92.5,92.5,0,0,0,24.642-2.119c-2.016-3.342-4.711-8.349-5.831-12.83-12.99,6.88-28.987,5.505-28.987,5.505" transform="translate(-1933.533 -1090.987)" fill="none"/></clipPath><linearGradient id="ck" x1="-5.048" y1="5.463" x2="-5.045" y2="5.463" xlink:href="#f"/><clipPath id="cl"><path d="M1783.984,1086.731a36.955,36.955,0,0,1-12.171,6.645c-.589,3.367.336,6.085,5.07,7.167,3.9,1.052,11.395,1.807,14.524-.681l1.736-10.908c-2.413-3.241-6.667-5.4-12.067-6.877,1.284.557,2.329,1.868,2.908,4.655m-2.908-4.655a4.336,4.336,0,0,0-1.216-.318q.617.153,1.216.318" transform="translate(-1771.655 -1081.759)" fill="none"/></clipPath><linearGradient id="cm" x1="-6.029" y1="6.189" x2="-6.025" y2="6.189" xlink:href="#f"/><clipPath id="cn"><path d="M1281.546,141.741c-4.441.121-8.048,4.153-8.333,9.342a11.668,11.668,0,0,0,3.1,8.7L1288.848,170a1.413,1.413,0,0,0,1.788.051l12.279-9.316a10.8,10.8,0,0,0,2.968-8.286c-.271-5.091-3.731-9.369-8.04-9.911a8.027,8.027,0,0,0-8.1,4.641,9.135,9.135,0,0,0-7.983-5.438l-.214,0" transform="translate(-1273.195 -141.738)" fill="none"/></clipPath></defs><g transform="translate(0 0.005)" opacity="0.49"><g transform="translate(185.124 267.005)"><g clip-path="url(#a)"><rect width="25.403" height="17.046" transform="translate(-0.567 0)" fill="url(#b)"/></g></g><g transform="translate(185.528 283.014)"><g clip-path="url(#c)"><rect width="9.569" height="24.382" transform="translate(-0.812 2.925) rotate(-74.486)" fill="url(#d)"/></g></g><g transform="translate(185.508 260.308)"><g clip-path="url(#e)"><rect width="12.113" height="10.747" transform="translate(-1.255 10.955) rotate(-83.463)" fill="url(#f)"/></g></g><g transform="translate(222.937 282.038)"><g clip-path="url(#g)"><rect width="12.246" height="35.604" transform="translate(-0.687 2.467) rotate(-74.486)" fill="url(#h)"/></g></g><g transform="translate(222.938 268.492)"><g clip-path="url(#i)"><rect width="35.747" height="15.11" transform="translate(0 0)" fill="url(#j)"/></g></g><g transform="translate(224.846 257.704)"><g clip-path="url(#k)"><rect width="14.002" height="10.641" transform="translate(-1.474 12.868) rotate(-83.463)" fill="url(#l)"/></g></g><g transform="translate(173.945 132.324)"><g clip-path="url(#m)"><rect width="117.58" height="145.128" transform="translate(-55.274 29.703) rotate(-28.429)" fill="url(#n)"/></g></g><g transform="translate(155.854 44.34)"><g clip-path="url(#o)"><rect width="129.926" height="109.391" transform="translate(-10.206 1.008) rotate(-5.831)" fill="url(#p)"/></g></g><g transform="translate(188.149 22.478)"><g clip-path="url(#q)"><path d="M1801.567,173.706l-7.557,30.911-24.388-7.241,7.557-30.911Z" transform="translate(-1776.055 -171.854)" fill="url(#r)"/></g></g><g transform="translate(178.799 8.577)"><g clip-path="url(#s)"><rect width="28.472" height="33.517" transform="translate(-9.878 3.901) rotate(-21.765)" fill="url(#t)"/></g></g><g transform="translate(172.762 -0.005)"><g transform="translate(0 0)" clip-path="url(#u)"><rect width="53.589" height="47.496" transform="translate(-12.326 42.311) rotate(-74.68)" fill="url(#v)"/></g></g><g transform="translate(198.605 18.848)"><g clip-path="url(#w)"><rect width="14.273" height="15.075" transform="translate(-6.046 2.769) rotate(-28.945)" fill="url(#x)"/></g></g><g transform="translate(0 -0.005)"><g transform="translate(0 0)" clip-path="url(#y)"><path d="M2246.347,598.723c4.663-11.01,2.972-24.305,2.954-24.438l-1.285.127c.017.131,1.673,13.171-2.884,23.928Z" transform="translate(-2014.587 -515.313)" fill="#7d97f4"/></g></g><g transform="translate(138.206 118.273)"><g clip-path="url(#z)"><rect width="27.812" height="18.451" transform="matrix(0.102, -0.995, 0.995, 0.102, -2.812, 26.065)" fill="url(#aa)"/></g></g><g transform="translate(138.361 52.482)"><g clip-path="url(#ab)"><rect width="71.276" height="42.839" transform="matrix(0.102, -0.995, 0.995, 0.102, -6.869, 67.257)" fill="url(#ac)"/></g></g><g transform="translate(134.168 139.01)"><g clip-path="url(#ad)"><rect width="23.218" height="21.563" transform="matrix(0.102, -0.995, 0.995, 0.102, -5.981, 21.127)" fill="url(#ae)"/></g></g><g transform="translate(15.184 16.392)"><g clip-path="url(#af)"><rect width="159.813" height="152.523" transform="translate(-60.669 86.403) rotate(-55.864)" fill="url(#ag)"/></g></g><g transform="translate(0 -0.005)"><g transform="translate(0 0)" clip-path="url(#y)"><path d="M257.032,414.531a2.583,2.583,0,0,1-1.194-.36,16.088,16.088,0,0,1-7.91-17.212,15.749,15.749,0,0,1,6.5-9.753,30.59,30.59,0,0,1,7.837-3.47c4.513-1.471,9.161-2.768,13.817-3.853l1.154-.266a47.018,47.018,0,0,0,8.1-2.376c3.281-1.417,5.672-3.478,6.735-5.8a15.234,15.234,0,0,0,1.032-4.587,12.3,12.3,0,0,1,1.546-5.5.043.043,0,1,1,.072.047,12.241,12.241,0,0,0-1.533,5.46,15.289,15.289,0,0,1-1.04,4.613c-1.071,2.346-3.478,4.423-6.778,5.848a47.1,47.1,0,0,1-8.112,2.381l-1.154.266c-4.653,1.085-9.3,2.38-13.809,3.851a30.5,30.5,0,0,0-7.815,3.459,15.662,15.662,0,0,0-6.462,9.7,16,16,0,0,0,7.868,17.118c.471.265,1.373.584,1.775.1a.043.043,0,0,1,.066.055.857.857,0,0,1-.69.278" transform="translate(-222.165 -324.228)" fill="#fff"/><path d="M293.006,662.832a.043.043,0,0,1-.034-.017,15.026,15.026,0,0,1-3.545-9.215,9.988,9.988,0,0,1,4.912-8.492.044.044,0,0,1,.059.016.043.043,0,0,1-.016.059,9.9,9.9,0,0,0-4.868,8.418,14.943,14.943,0,0,0,3.526,9.161.043.043,0,0,1-.008.06.044.044,0,0,1-.026.009" transform="translate(-259.707 -578.858)" fill="#fff"/></g></g><g transform="translate(111.507 76.105)"><g clip-path="url(#ai)"><rect width="75.127" height="37.323" transform="translate(-7.322 71.694) rotate(-84.169)" fill="url(#aj)"/></g></g><g transform="translate(8.626 272.777)"><g clip-path="url(#ak)"><rect width="19.272" height="14.638" transform="translate(-1.782 0.149) rotate(-6.196)" fill="url(#al)"/></g></g><g transform="translate(79.304 193.212)"><g clip-path="url(#am)"><rect width="32.059" height="92.296" transform="translate(-7.913 0.658) rotate(-4.89)" fill="url(#an)"/></g></g><g transform="translate(78.734 267.097)"><g clip-path="url(#ao)"><rect width="31.142" height="21.517" transform="translate(-2.416 0.215) rotate(-6.196)" fill="url(#ap)"/></g></g><g transform="translate(11.788 193.671)"><g clip-path="url(#aq)"><rect width="61.448" height="91.685" transform="translate(-7.568 0.635) rotate(-4.89)" fill="url(#ar)"/></g></g><g transform="translate(0 -0.005)"><g transform="translate(0 0)" clip-path="url(#y)"><path d="M721.736,621.2c7.712-28.192-11.824-44.138-11.824-44.138,12.327-10.208,34.787-14.854,34.787-14.854s21.431,13.518,18.889,24.1c-1.49,6.2-15.064,37.144-15.064,37.144a34.053,34.053,0,0,1-26.787-2.251" transform="translate(-637.014 -504.48)" fill="#7d97f4"/></g></g><g transform="translate(49.505 116.718)"><g clip-path="url(#at)"><rect width="101.262" height="108.599" transform="translate(-39.244 24.358) rotate(-31.827)" fill="url(#au)"/></g></g><g transform="translate(87.307 36.78)"><g clip-path="url(#av)"><rect width="22.886" height="31.085" transform="translate(-4.361 0.527) rotate(-7.784)" fill="url(#aw)"/></g></g><g transform="translate(92.571 20.485)"><g clip-path="url(#ax)"><rect width="32.519" height="29.363" transform="translate(-3.792 30.769) rotate(-86.476)" fill="url(#ay)"/></g></g><g transform="translate(85.302 11.568)"><g clip-path="url(#az)"><rect width="50.541" height="47.118" transform="translate(-15.061 9.068) rotate(-34.217)" fill="url(#ba)"/></g></g><g transform="translate(92.571 28.852)"><g clip-path="url(#bb)"><rect width="9.882" height="10.078" transform="translate(-3.005 9.279) rotate(-86.476)" fill="url(#bc)"/></g></g><g transform="translate(128.85 105.884)"><g clip-path="url(#bd)"><rect width="62.193" height="62.687" transform="translate(-15.118 4.324) rotate(-17.04)" fill="url(#be)"/></g></g><g transform="translate(164.818 111.078)"><g clip-path="url(#bf)"><rect width="58.222" height="51.484" transform="translate(-20.462 42.185) rotate(-69.118)" fill="url(#bg)"/></g></g><g transform="translate(97.865 111.078)"><g clip-path="url(#bh)"><rect width="58.116" height="51.218" transform="translate(-18.63 42.181) rotate(-69.118)" fill="url(#bi)"/></g></g><g transform="translate(130.941 279.1)"><g clip-path="url(#bj)"><rect width="7.609" height="16.259" transform="translate(-0.046 7.532) rotate(-89.731)" fill="url(#bk)"/></g></g><g transform="translate(132.21 225.614)"><g clip-path="url(#bl)"><rect width="20.613" height="56.947" transform="translate(-6.953 0.665) rotate(-6.273)" fill="url(#bm)"/></g></g><g transform="translate(148.92 279.1)"><g clip-path="url(#bn)"><rect width="7.609" height="16.259" transform="matrix(0.005, -1, 1, 0.005, -0.046, 7.532)" fill="url(#bo)"/></g></g><g transform="translate(150.189 225.614)"><g clip-path="url(#bp)"><rect width="20.613" height="56.947" transform="translate(-6.953 0.665) rotate(-6.273)" fill="url(#bq)"/></g></g><g transform="translate(128.317 193.618)"><g clip-path="url(#br)"><rect width="37.058" height="39.43" transform="matrix(0.998, -0.068, 0.068, 0.998, -2.539, 0.174)" fill="url(#bs)"/></g></g><g transform="translate(149.453 194.722)"><g clip-path="url(#bt)"><rect width="13.94" height="14.173" transform="translate(-4.434 7.007) rotate(-57.674)" fill="url(#bu)"/></g></g><g transform="translate(112.411 146.924)"><g clip-path="url(#bv)"><rect width="82.139" height="82.571" transform="matrix(0.666, -0.746, 0.746, 0.666, -27.806, 30.95)" fill="url(#bw)"/></g></g><g transform="translate(139.035 142.364)"><g clip-path="url(#bx)"><rect width="17.148" height="20.233" transform="matrix(0.966, -0.258, 0.258, 0.966, -4.344, 1.158)" fill="url(#by)"/></g></g><g transform="translate(125.126 117.61)"><g clip-path="url(#bz)"><rect width="42.469" height="38.743" transform="translate(-8.718 0.004) rotate(-0.574)" fill="url(#ca)"/></g></g><g transform="translate(135.176 114.232)"><g clip-path="url(#cb)"><rect width="34.911" height="35.476" transform="translate(-10.076 4.125) rotate(-22.83)" fill="url(#cc)"/></g></g><g transform="translate(148.318 139.577)"><g clip-path="url(#cd)"><rect width="9.821" height="6.895" transform="matrix(1, -0.01, 0.01, 1, -0.068, 0.001)" fill="url(#ce)"/></g></g><g transform="translate(56.938 72.523)"><g clip-path="url(#cf)"><rect width="69.02" height="71.482" transform="translate(-27.594 18.97) rotate(-35.695)" fill="url(#cg)"/></g></g><g transform="translate(94.627 113.104)"><g clip-path="url(#ch)"><rect width="24.988" height="23.902" transform="translate(-7.174 5.154) rotate(-35.695)" fill="url(#ci)"/></g></g><g transform="translate(198.548 112.025)"><g clip-path="url(#cj)"><rect width="38.925" height="33.395" transform="matrix(0.85, -0.527, 0.527, 0.85, -7.93, 4.914)" fill="url(#ck)"/></g></g><g transform="translate(181.925 111.078)"><g clip-path="url(#cl)"><rect width="29.478" height="29.049" transform="matrix(0.85, -0.527, 0.527, 0.85, -9.651, 5.714)" fill="url(#cm)"/></g></g><g transform="translate(130.74 14.55)"><g clip-path="url(#cn)"><rect width="35.038" height="38.347" transform="translate(-6.086 27.445) rotate(-77.834)" fill="#15b715"/></g></g></g></svg>