<svg xmlns="http://www.w3.org/2000/svg" width="28" height="32.707" viewBox="0 0 28 32.707"><path d="M7.5,2.5h21A3.5,3.5,0,0,1,32,6V27a3.5,3.5,0,0,1-3.5,3.5H22.707L18,35.207,13.293,30.5H7.5A3.5,3.5,0,0,1,4,27V6A3.5,3.5,0,0,1,7.5,2.5Zm21,27A2.5,2.5,0,0,0,31,27V6a2.5,2.5,0,0,0-2.5-2.5H7.5A2.5,2.5,0,0,0,5,6V27a2.5,2.5,0,0,0,2.5,2.5h6.207L18,33.793,22.293,29.5ZM18,7.45A4.55,4.55,0,1,1,13.45,12,4.555,4.555,0,0,1,18,7.45Zm0,8.1A3.55,3.55,0,1,0,14.45,12,3.554,3.554,0,0,0,18,15.55Zm0,1.95a16.591,16.591,0,0,1,5.819,1.239C26.227,19.751,27.5,21.1,27.5,22.65V24.5H8.5V22.65c0-1.547,1.273-2.9,3.681-3.911A16.591,16.591,0,0,1,18,17.5Zm8.5,6v-.85c0-2.534-5.581-4.15-8.5-4.15s-8.5,1.616-8.5,4.15v.85Z" transform="translate(-4 -2.5)" fill="#fff"/></svg>