<svg xmlns="http://www.w3.org/2000/svg" width="31.475" height="25.18" viewBox="0 0 31.475 25.18"><path d="M30.688,10.229H27.541V7.082a.789.789,0,0,0-.787-.787H25.18a.789.789,0,0,0-.787.787v3.147H21.246a.789.789,0,0,0-.787.787V12.59a.789.789,0,0,0,.787.787h3.147v3.147a.789.789,0,0,0,.787.787h1.574a.789.789,0,0,0,.787-.787V13.377h3.147a.789.789,0,0,0,.787-.787V11.016A.789.789,0,0,0,30.688,10.229ZM11.016,12.59A6.295,6.295,0,1,0,4.721,6.295,6.294,6.294,0,0,0,11.016,12.59Zm4.406,1.574H14.6a8.561,8.561,0,0,1-7.17,0H6.61A6.611,6.611,0,0,0,0,20.773v2.046A2.361,2.361,0,0,0,2.361,25.18H19.672a2.361,2.361,0,0,0,2.361-2.361V20.773A6.611,6.611,0,0,0,15.423,14.164Z" fill="#fff"/></svg>