<svg xmlns="http://www.w3.org/2000/svg" width="9.751" height="9.323" viewBox="0 0 9.751 9.323"><g transform="translate(-3 -2.818)"><path d="M21.376,29.475H16.988a.488.488,0,1,1,0-.975h4.388a.488.488,0,1,1,0,.975Z" transform="translate(-9.112 -17.334)" fill="#fff"/><path d="M10.8,2.818a1.522,1.522,0,0,1,1.076,2.6L5.783,11.511a.488.488,0,0,1-.227.128l-1.95.488a.488.488,0,0,1-.591-.591L3.5,9.585a.488.488,0,0,1,.128-.227L9.725,3.264A1.512,1.512,0,0,1,10.8,2.818ZM5.189,10.726l6-6a.547.547,0,0,0-.773-.773l-6,6-.258,1.031Z" fill="#fff"/></g></svg>