<svg xmlns="http://www.w3.org/2000/svg" width="36" height="30" viewBox="0 0 36 30"><g transform="translate(0 -3)"><path d="M31.5,33H4.5A4.505,4.505,0,0,1,0,28.5V12A4.505,4.505,0,0,1,4.5,7.5H9.7l2.555-3.832A1.5,1.5,0,0,1,13.5,3h9a1.5,1.5,0,0,1,1.248.668L26.3,7.5h5.2A4.505,4.505,0,0,1,36,12V28.5A4.505,4.505,0,0,1,31.5,33ZM4.5,10.5A1.5,1.5,0,0,0,3,12V28.5A1.5,1.5,0,0,0,4.5,30h27A1.5,1.5,0,0,0,33,28.5V12a1.5,1.5,0,0,0-1.5-1.5h-6a1.5,1.5,0,0,1-1.248-.668L21.7,6H14.3L11.748,9.832A1.5,1.5,0,0,1,10.5,10.5Z" fill="#fff"/><path d="M18,12a7.5,7.5,0,1,1-7.5,7.5A7.509,7.509,0,0,1,18,12Zm0,12a4.5,4.5,0,1,0-4.5-4.5A4.505,4.505,0,0,0,18,24Z" fill="#fff"/></g></svg>