<svg xmlns="http://www.w3.org/2000/svg" width="44.467" height="44.474" viewBox="0 0 44.467 44.474"><g transform="translate(-0.032)"><path d="M71.781,133.413a4.064,4.064,0,1,0-4.064-4.064A4.069,4.069,0,0,0,71.781,133.413Z" transform="translate(-60.018 -111.092)" fill="#fff"/><path d="M40.347,266.739a2.272,2.272,0,0,0-2.27-2.27H36.1l-3.889,8.649a1.23,1.23,0,0,1-2.248,0l-3.9-8.649H24.089a2.272,2.272,0,0,0-2.27,2.27v9.769H40.347v-9.769Z" transform="translate(-19.319 -234.509)" fill="#56ace0"/><g transform="translate(0.032 11.724)"><path d="M52.463,116.563a6.532,6.532,0,1,0-6.532-6.532A6.543,6.543,0,0,0,52.463,116.563Zm0-10.582a4.064,4.064,0,1,1-4.064,4.064A4.069,4.069,0,0,1,52.463,105.981Z" transform="translate(-40.731 -103.498)" fill="#194f82"/><path d="M18.765,242.683H15.989a1.234,1.234,0,0,0-1.128.725l-3.1,6.884-3.1-6.869a1.222,1.222,0,0,0-1.128-.725H4.77a4.724,4.724,0,0,0-4.738,4.723v11.007a1.236,1.236,0,0,0,1.238,1.238h21a1.236,1.236,0,0,0,1.238-1.238V247.421A4.741,4.741,0,0,0,18.765,242.683ZM2.5,247.421a2.272,2.272,0,0,1,2.27-2.27H6.747l3.9,8.649a1.23,1.23,0,0,0,2.248,0l3.9-8.649h1.977a2.272,2.272,0,0,1,2.27,2.27v9.769H2.507v-9.769Z" transform="translate(-0.032 -226.916)" fill="#194f82"/></g><path d="M234.106,21.786H218.99a1.094,1.094,0,0,0-1.091,1.091v2.3h4.379a1.238,1.238,0,1,1,0,2.475h-4.387V30.12h2.424a1.238,1.238,0,1,1,0,2.475h-2.424V34.58a1.094,1.094,0,0,0,1.091,1.091h1.311a1.236,1.236,0,0,1,1.238,1.238V39.86L225.706,36a1.223,1.223,0,0,1,.842-.322h7.565a1.094,1.094,0,0,0,1.091-1.091v-11.7A1.089,1.089,0,0,0,234.106,21.786Z" transform="translate(-193.18 -19.318)" fill="#ffc10d"/><g transform="translate(22.236)"><path d="M214.73,0H199.615a3.579,3.579,0,0,0-3.574,3.574v11.7a3.574,3.574,0,0,0,3.574,3.574h.081v4.526a1.235,1.235,0,0,0,2.072.908l5.888-5.441h7.074a3.579,3.579,0,0,0,3.574-3.574V3.574A3.579,3.579,0,0,0,214.73,0Zm.015,16.36H207.18a1.272,1.272,0,0,0-.842.322l-4.174,3.859V17.59a1.236,1.236,0,0,0-1.238-1.238h-1.311a1.094,1.094,0,0,1-1.091-1.091V13.277h2.424a1.238,1.238,0,1,0,0-2.475h-2.424V8.327H202.9a1.238,1.238,0,1,0,0-2.475h-4.387V3.559a1.094,1.094,0,0,1,1.091-1.091h15.13a1.094,1.094,0,0,1,1.091,1.091v11.7h.007A1.1,1.1,0,0,1,214.745,16.36Z" transform="translate(-196.041)" fill="#194f82"/><path d="M284.681,30.9a1.236,1.236,0,0,0-1.238,1.238v4.152a1.238,1.238,0,0,0,2.475,0V32.139A1.241,1.241,0,0,0,284.681,30.9Z" transform="translate(-273.542 -27.4)" fill="#194f82"/><path d="M284.681,100.267a1.236,1.236,0,0,0-1.238,1.238v.937a1.238,1.238,0,1,0,2.475,0V101.5A1.246,1.246,0,0,0,284.681,100.267Z" transform="translate(-273.542 -88.909)" fill="#194f82"/></g></g></svg>