<svg xmlns="http://www.w3.org/2000/svg" width="56" height="56" viewBox="0 0 56 56"><g transform="translate(0.146 0.146)"><circle cx="28" cy="28" r="28" transform="translate(-0.146 -0.146)" fill="#126db1"/><path d="M226.241,0a28.129,28.129,0,0,0-3.633.236,27.857,27.857,0,0,1,0,55.237,28.132,28.132,0,0,0,3.633.236,27.854,27.854,0,1,0,0-55.708Z" transform="translate(-198.387)" fill="#125d95"/><g transform="translate(10.839 9.628)"><path d="M123.9,233.182a8.5,8.5,0,0,0-5.44,1.963l-.816-.616a6.715,6.715,0,0,0-8.985.83l-.463-.523a4.9,4.9,0,0,0-8.577,3.25v3.419a1.488,1.488,0,0,0,1.486,1.486h5.78v2.147a1.488,1.488,0,0,0,1.486,1.486h6.991v2.147a1.488,1.488,0,0,0,1.486,1.486h14.1a1.488,1.488,0,0,0,1.486-1.486V241.72A8.547,8.547,0,0,0,123.9,233.182Z" transform="translate(-99.619 -217.438)" fill="#fff"/><path d="M133.818,88.487A6.123,6.123,0,0,0,127.7,94.6c0,.05,0,.1,0,.148a4.9,4.9,0,0,0-9.692,1.063c0,.107,0,.213.012.319a3.693,3.693,0,1,0,.11.892c0-.05,0-.1,0-.148a4.9,4.9,0,0,0,9.692-1.062,6.116,6.116,0,1,0,5.995-7.328Z" transform="translate(-109.536 -88.487)" fill="#fff"/></g></g></svg>