<svg xmlns="http://www.w3.org/2000/svg" width="40.422" height="53.174" viewBox="0 0 40.422 53.174"><g transform="translate(-61.392)"><path d="M111.978,104.737V145.7H74.221V104.737h8.3v3.182h21.158v-3.182Z" transform="translate(-11.497 -93.86)" fill="#ffda79"/><g transform="translate(62.724 1.332)"><rect width="21.158" height="12.727" transform="translate(8.3)" fill="#ff7876"/><rect width="8.3" height="6.363" transform="translate(0 3.182)" fill="#ff7876"/><rect width="8.3" height="6.363" transform="translate(29.458 3.182)" fill="#ff7876"/></g><g transform="translate(70.498 21.08)"><rect width="6.162" height="6.162" fill="#fff"/><rect width="6.162" height="6.162" transform="translate(0 14.398)" fill="#fff"/></g><g transform="translate(61.392)"><path d="M100.482,3.182H93.514V1.332A1.332,1.332,0,0,0,92.182,0H71.024a1.332,1.332,0,0,0-1.332,1.332V3.182H62.724a1.332,1.332,0,0,0-1.332,1.332V51.841a1.332,1.332,0,0,0,1.332,1.332h37.757a1.332,1.332,0,0,0,1.332-1.332V4.514A1.332,1.332,0,0,0,100.482,3.182ZM99.149,5.846v3.7H93.514v-3.7ZM72.356,2.665H90.85V12.727H72.356Zm-8.3,3.182h5.635v3.7H64.057ZM99.149,50.509H64.057V12.21h5.635v1.849a1.332,1.332,0,0,0,1.332,1.332H92.182a1.332,1.332,0,0,0,1.332-1.332V12.21h5.635Z" transform="translate(-61.392)" fill="#58595b"/><path d="M143.736,190.144h-6.162a1.332,1.332,0,0,0-1.332,1.332v6.162a1.332,1.332,0,0,0,1.332,1.332h6.162a1.332,1.332,0,0,0,1.332-1.332v-6.162A1.332,1.332,0,0,0,143.736,190.144Zm-1.332,6.162h-3.5v-3.5h3.5Z" transform="translate(-128.468 -170.397)" fill="#58595b"/><path d="M251.841,249.474a1.332,1.332,0,1,0,0,2.665h10.343a1.332,1.332,0,0,0,0-2.665Z" transform="translate(-230.868 -223.565)" fill="#58595b"/><path d="M143.736,328.777h-6.162a1.332,1.332,0,0,0-1.332,1.332v6.162a1.332,1.332,0,0,0,1.332,1.332h6.162a1.332,1.332,0,0,0,1.332-1.332v-6.162A1.332,1.332,0,0,0,143.736,328.777Zm-1.332,6.161h-3.5v-3.5h3.5Z" transform="translate(-128.468 -294.632)" fill="#58595b"/><path d="M262.185,388.105H251.842a1.332,1.332,0,0,0,0,2.665h10.343a1.332,1.332,0,0,0,0-2.665Z" transform="translate(-230.869 -347.798)" fill="#58595b"/><path d="M225.788,45.181h.611v.611a1.332,1.332,0,1,0,2.665,0v-.611h.611a1.332,1.332,0,0,0,0-2.665h-.611v-.611a1.332,1.332,0,1,0-2.665,0v.611h-.611a1.332,1.332,0,0,0,0,2.665Z" transform="translate(-207.521 -36.359)" fill="#58595b"/></g></g></svg>